<?xml version="1.0" standalone="no"?><!DOCTYPE svg PUBLIC "-//W3C//DTD SVG 1.1//EN"
  "http://www.w3.org/Graphics/SVG/1.1/DTD/svg11.dtd">
<svg t="1594117978322" class="icon" viewBox="0 0 1030 1024" version="1.1" xmlns="http://www.w3.org/2000/svg" p-id="540"
     xmlns:xlink="http://www.w3.org/1999/xlink" width="201.171875" height="200">
  <defs>
    <style type="text/css"></style>
  </defs>
  <path
    d="M924.516022 508.495811c-19.365574 0-32.666442-1.041291-40.675435-3.180819-26.772571-7.024648-46.435076-27.862673-58.182141-40.309355-1.586342-1.679895-7.447672-7.927642-16.453214-17.531113-159.53719-170.072127-247.937112-263.385642-262.75924-277.361721-27.809795-25.9794-41.712658-58.076386-42.286182-59.430878l-0.980278-2.294094V2.013434l11.50708-0.658942c0.964008-0.056946 24.022912-1.354492 55.103012-1.354492 18.27954 0 35.509654 0.455565 51.210372 1.354492 67.4236 4.002463 186.016898 87.623021 220.757787 113.150924 73.345944 53.907154 126.142658 164.149784 149.059197 242.177471 20.996659 71.82875 13.422893 135.66071 13.093423 138.34122l-1.232466 9.904469-9.949211 0.76063c-1.496856 0.122026-37.051253 2.806605-68.212704 2.806605z m-396.931229-405.27376c3.371994 7.040918 15.391584 30.254388 35.562532 49.099317 22.920607 21.610858 204.267965 214.933064 263.857477 278.459958 8.977068 9.57093 14.818061 15.794271 16.400336 17.470099 10.595951 11.234555 26.613937 28.204346 46.683196 33.471815 3.339453 0.89486 12.178225 2.36731 34.427688 2.367311 20.297042 0 43.079353-1.216195 55.977533-2.029705 1.167385-20.028584 1.781584-67.626978-13.093422-118.511946-21.842708-74.366897-71.645711-179.069534-140.090265-229.376911-68.790295-50.547363-159.480244-105.585293-207.729445-108.448844-15.212613-0.866387-31.974959-1.309749-49.790799-1.309749-17.441626 0-32.50374 0.43116-42.204831 0.797238v78.011417zM771.161498 874.542183l-133.561857-77.738891 46.451346-46.443211 133.382886 77.714485-46.272375 46.467617z m-93.895173-82.888401l89.89271 52.316744 10.68137-10.726112-89.831698-52.333014-10.742382 10.742382zM521.324843 984.223492H457.761342l-45.039909-157.230892h63.425205l45.178205 157.230892z m-45.166002-24.40526h12.763951l-31.149248-108.420371h-12.670398l31.055695 108.420371z"
    p-id="541"></path>
  <path
    d="M479.526767 814.269324c-143.352434 0-259.981108-116.677484-259.981108-260.090932 0-143.478528 116.624606-260.212958 259.981108-260.212958 143.352434 0 259.981108 116.730362 259.981108 260.212958 0 143.417515-116.628674 260.090932-259.981108 260.090932z m0-495.898629c-129.897001 0-235.575847 105.780535-235.575848 235.807697 0 129.958014 105.678847 235.685671 235.575848 235.685671 129.897001 0 235.575847-105.727657 235.575847-235.685671 0-130.023094-105.678847-235.807697-235.575847-235.807697zM219.24466 894.037919l-45.861552-46.052727 60.036941-128.40828 45.971377 46.540832-60.146766 127.920175z m-16.522361-51.177832l9.249594 9.286202 38.088477-81.001061-9.37162-9.489579-37.966451 81.204438zM46.601845 608.549245v-63.555366l156.999043-45.190408v63.563502l-156.999043 45.182272z m24.405261-45.18634v12.768019l108.188521-31.137045v-12.768019l-108.188521 31.137045z"
    p-id="542"></path>
  <path
    d="M273.25757 376.349459L136.974526 302.446262l39.272132-52.613675 143.458191 80.069593L273.25757 376.349459zM173.407513 294.441336l95.469313 51.775761 10.738314-10.738315-96.591954-53.915288-9.615673 12.877842z"
    p-id="543"></path>
  <path
    d="M481.255473 1024c-259.952635 0-471.436423-211.430909-471.436423-471.322532 0-258.707967 210.426226-470.138876 469.077248-471.322531l12.259576-0.056946v50.514823c4.193637 7.703927 18.580539 32.434592 40.463922 52.621809 21.098348 19.300494 160.924222 169.840277 244.46343 259.785866 29.017855 31.242801 49.981974 53.8136 53.248211 57.169324 8.944528 9.278067 28.468737 14.264875 49.135925 19.544546l5.885736 1.513126c13.467636-0.305066 34.911726-0.305066 55.676535-0.305065h11.751133l0.443362 11.747065c0.23185 6.121653 0.467767 12.450751 0.467767 18.787983 0 259.887555-211.483787 471.322532-471.436422 471.322532zM466.750613 105.983913C227.14383 113.598354 34.224311 311.468073 34.224311 552.677468c0 246.432121 200.538028 446.917271 447.031162 446.917271s447.027094-200.48515 447.027094-446.917271c0-2.041907-0.028473-4.079746-0.073216-6.12572-17.531112 0.008135-34.321932 0.061013-44.93822 0.337606l-1.724638 0.044743-9.131635-2.35104c-24.120533-6.162328-46.902844-11.978916-60.622668-26.207183-3.424872-3.518425-23.384307-25.011325-53.602088-57.539469-77.824309-83.791395-222.685802-239.76135-243.0886-258.42324-29.603581-27.305419-46.386266-60.740627-47.085883-62.147996l-1.273141-2.562553v-31.718703z"
    p-id="544"></path>
</svg>
