<?xml version="1.0" standalone="no"?>
<!DOCTYPE svg PUBLIC "-//W3C//DTD SVG 1.1//EN" "http://www.w3.org/Graphics/SVG/1.1/DTD/svg11.dtd" >
<svg xmlns="http://www.w3.org/2000/svg" xmlns:xlink="http://www.w3.org/1999/xlink" version="1.1">
<metadata>
Created by FontForge 20170731 at Fri May 22 11:17:56 2020
 By Aleksey,,,
Copyright (c) 2017 by Timo Gaessner. All rights reserved. |DCNT
</metadata>
<defs>
<font id="MaisonNeue-DemiBold" horiz-adv-x="1257" >
  <font-face 
    font-family="Maison Neue DemiBold"
    font-weight="600"
    font-stretch="normal"
    units-per-em="2048"
    panose-1="2 11 7 4 4 0 0 0 0 0"
    ascent="1495"
    descent="-553"
    x-height="1085"
    cap-height="1434"
    bbox="-80 -614 2025 1853"
    underline-thickness="204"
    underline-position="-1673"
    unicode-range="U+000D-FB02"
  />
<missing-glyph horiz-adv-x="748" 
d="M68 0v1365h544v-1365h-544zM136 68h408v1229h-408v-1229z" />
    <glyph glyph-name="uniFB01" unicode="fi" horiz-adv-x="1214" 
d="M20 866v219h203v113q0 132 79 206.5t224 74.5h189v-222h-160q-86 0 -86 -83v-89h635v-1085h-246v866h-389v-866h-246v866h-203zM850 1274v239h250v-239h-250z" />
    <glyph glyph-name="uniFB02" unicode="fl" horiz-adv-x="1216" 
d="M20 866v219h203v113q0 132 79 206.5t224 74.5h189v-222h-160q-86 0 -86 -83v-89h389v410h246v-1495h-246v866h-389v-866h-246v866h-203z" />
    <glyph glyph-name=".notdef" horiz-adv-x="748" 
d="M68 0v1365h544v-1365h-544zM136 68h408v1229h-408v-1229z" />
    <glyph glyph-name="glyph1" horiz-adv-x="0" 
 />
    <glyph glyph-name="glyph2" horiz-adv-x="682" 
 />
    <glyph glyph-name="uni000D" unicode="&#xd;" horiz-adv-x="681" 
 />
    <glyph glyph-name="space" unicode=" " horiz-adv-x="532" 
 />
    <glyph glyph-name="exclam" unicode="!" horiz-adv-x="808" 
d="M256 0v289h297v-289h-297zM276 467v967h256v-967h-256z" />
    <glyph glyph-name="quotedbl" unicode="&#x22;" horiz-adv-x="868" 
d="M170 940v494h203v-494h-203zM496 940v494h202v-494h-202z" />
    <glyph glyph-name="numbersign" unicode="#" horiz-adv-x="1685" 
d="M109 346l38 215h302l57 324h-305l39 213h303l59 336h240l-60 -336h254l60 336h239l-59 -336h301l-39 -213h-299l-57 -324h301l-37 -215h-303l-62 -346h-239l61 346h-254l-61 -346h-240l62 346h-301zM688 561h254l57 324h-254z" />
    <glyph glyph-name="dollar" unicode="$" horiz-adv-x="1333" 
d="M72 473l250 49q26 -149 95.5 -224.5t194.5 -94.5v442q-170 52 -254 90q-108 48 -172.5 131t-64.5 201q0 169 138.5 280t352.5 117v176h123v-182q197 -23 324 -133t158 -281l-250 -51q-30 100 -85.5 157t-146.5 77v-373q166 -50 266 -98q119 -55 190 -150t71 -229
q0 -177 -145.5 -289.5t-381.5 -118.5v-194h-123v198q-236 23 -373.5 149t-166.5 351zM371 1071q0 -59 58 -100t183 -80v346q-110 -5 -175.5 -49t-65.5 -117zM735 197q133 4 204 51t71 127q0 82 -66 133.5t-209 97.5v-409z" />
    <glyph glyph-name="percent" unicode="%" horiz-adv-x="2134" 
d="M109 1004q0 207 100 327.5t272 120.5q173 0 274 -120.5t101 -327.5t-101 -328t-274 -121q-172 0 -272 121t-100 328zM315 1004q0 -124 43 -191.5t123 -67.5q82 0 125 67t43 192t-43 191.5t-125 66.5q-80 0 -123 -67t-43 -191zM473 -66l1012 1670l184 -109l-1012 -1665z
M1278 430q0 207 100.5 328t272.5 121q173 0 273.5 -121t100.5 -328t-100.5 -327.5t-273.5 -120.5q-172 0 -272.5 120.5t-100.5 327.5zM1485 430q0 -124 43 -191t123 -67q82 0 125 66.5t43 191.5t-43 191.5t-125 66.5q-80 0 -123 -67t-43 -191z" />
    <glyph glyph-name="ampersand" unicode="&#x26;" horiz-adv-x="1406" 
d="M109 391q0 119 68.5 225t197.5 185q-82 75 -120 148.5t-38 158.5q0 154 115.5 255t292.5 101q179 0 291.5 -93t132.5 -257l-242 -35q-27 156 -180 156q-75 0 -119.5 -36t-44.5 -99q0 -42 22.5 -77.5t83.5 -90.5l381 -326v240h232v-436l188 -162l-147 -176l-123 104
q-66 -100 -188 -153.5t-287 -53.5q-242 0 -379 112t-137 310zM354 412q0 -100 72 -156.5t199 -56.5q220 0 290 137l-374 321q-91 -49 -139 -112.5t-48 -132.5z" />
    <glyph glyph-name="quotesingle" unicode="'" horiz-adv-x="542" 
d="M170 940v494h203v-494h-203z" />
    <glyph glyph-name="parenleft" unicode="(" horiz-adv-x="763" 
d="M170 604q0 555 414 1008l151 -119q-174 -221 -253 -430.5t-79 -458.5t79 -458.5t253 -430.5l-151 -118q-414 453 -414 1007z" />
    <glyph glyph-name="parenright" unicode=")" horiz-adv-x="763" 
d="M29 -285q174 221 252.5 430.5t78.5 458.5t-78.5 458.5t-252.5 430.5l151 119q414 -453 414 -1008q0 -554 -414 -1007z" />
    <glyph glyph-name="asterisk" unicode="*" horiz-adv-x="1021" 
d="M109 1135l92 157l219 -127v269h182v-269l219 127l90 -157l-237 -138l182 -217l-137 -121l-207 250l-209 -250l-139 121l184 217z" />
    <glyph glyph-name="plus" unicode="+" horiz-adv-x="1234" 
d="M109 647v201h403v430h213v-430h399v-201h-399v-432h-213v432h-403z" />
    <glyph glyph-name="comma" unicode="," horiz-adv-x="647" 
d="M170 0v279h307v-246q0 -136 -74.5 -214t-220.5 -91v131q57 13 81 46t24 95h-117z" />
    <glyph glyph-name="hyphen" unicode="-" horiz-adv-x="733" 
d="M88 489v228h555v-228h-555z" />
    <glyph glyph-name="period" unicode="." horiz-adv-x="638" 
d="M170 0v289h297v-289h-297z" />
    <glyph glyph-name="slash" unicode="/" horiz-adv-x="933" 
d="M16 -31l744 1567l155 -72l-741 -1562z" />
    <glyph glyph-name="zero" unicode="0" horiz-adv-x="1318" 
d="M72 688q0 329 161.5 524t425.5 195q265 0 426.5 -195t161.5 -524q0 -328 -163.5 -523.5t-424.5 -195.5t-424 195.5t-163 523.5zM317 688q0 -237 89.5 -364t252.5 -127t252.5 127t89.5 364t-90 364.5t-252 127.5t-252 -127.5t-90 -364.5z" />
    <glyph glyph-name="one" unicode="1" horiz-adv-x="821" 
d="M57 905v260l353 211h227v-1376h-246v1106z" />
    <glyph glyph-name="two" unicode="2" horiz-adv-x="1239" 
d="M98 918q17 228 163.5 358.5t385.5 130.5q212 0 352 -117.5t140 -294.5q0 -148 -96 -256.5t-314 -208.5q-180 -82 -229 -112q-56 -35 -76 -70q-25 -42 -27 -123h727v-225h-1003v178q0 177 78 281q43 60 124.5 113.5t227.5 121.5q201 93 271.5 154.5t70.5 146.5t-66.5 135
t-179.5 50q-135 0 -214 -72.5t-91 -208.5z" />
    <glyph glyph-name="three" unicode="3" horiz-adv-x="1239" 
d="M78 459l239 43q23 -159 100 -232t224 -73q117 0 184.5 56.5t67.5 154.5q0 210 -266 210h-129v199h112q110 0 178 49t68 129q0 85 -62 136t-167 51q-117 0 -190.5 -57t-90.5 -160l-240 41q27 179 168 290t353 111q208 0 341.5 -108.5t133.5 -274.5q0 -92 -47.5 -165
t-132.5 -114v-4q101 -43 160 -136.5t59 -213.5q0 -184 -139.5 -303t-360.5 -119q-241 0 -389 129t-174 361z" />
    <glyph glyph-name="four" unicode="4" horiz-adv-x="1193" 
d="M14 258v225l572 893h385v-893h176v-225h-176v-258h-246v258h-711zM262 483h463v715h-4z" />
    <glyph glyph-name="five" unicode="5" horiz-adv-x="1222" 
d="M68 358l235 74q62 -235 322 -235q131 0 213 72.5t82 189.5t-82 190.5t-213 73.5q-172 0 -301 -123l-226 59l135 717h795v-225h-608l-58 -305l5 -2q125 82 292 82q221 0 363.5 -133t142.5 -336q0 -216 -151 -352t-389 -136q-215 0 -362.5 102t-194.5 287z" />
    <glyph glyph-name="six" unicode="6" horiz-adv-x="1255" 
d="M72 676q-2 156 43.5 293.5t126 234t194 151t242.5 52.5q192 0 327.5 -96.5t176.5 -263.5l-236 -62q-30 102 -94.5 148.5t-169.5 46.5q-144 0 -238.5 -111.5t-111.5 -306.5h2q57 72 156.5 112.5t220.5 40.5q214 0 353.5 -133t139.5 -336q0 -212 -147 -344.5t-375 -132.5
q-286 0 -448 189.5t-162 517.5zM381 453q0 -116 80.5 -186t218.5 -70q124 0 201 68.5t77 187.5q0 118 -80.5 191t-205.5 73q-128 0 -209.5 -73t-81.5 -191z" />
    <glyph glyph-name="seven" unicode="7" horiz-adv-x="1062" 
d="M25 1151v225h989v-209l-549 -1167h-277l551 1147v4h-714z" />
    <glyph glyph-name="eight" unicode="8" horiz-adv-x="1202" 
d="M37 391q0 121 69.5 217t188.5 144v4q-180 94 -180 274q0 163 136.5 270t350.5 107q212 0 348.5 -107.5t136.5 -269.5q0 -180 -178 -274v-4q118 -48 187 -143.5t69 -217.5q0 -185 -157 -303.5t-406 -118.5q-252 0 -408.5 118t-156.5 304zM303 418q0 -100 79 -155.5
t220 -55.5q140 0 218.5 55.5t78.5 155.5q0 97 -80.5 156t-216.5 59t-217.5 -59t-81.5 -156zM362 1016q0 -80 65.5 -128t174.5 -48t174.5 48t65.5 128q0 78 -67 128t-173 50t-173 -50t-67 -128z" />
    <glyph glyph-name="nine" unicode="9" horiz-adv-x="1220" 
d="M51 930q0 207 149 342t378 135q268 0 417 -174q154 -174 154 -483q0 -402 -132 -591.5t-413 -189.5q-184 0 -312.5 93.5t-178.5 259.5l233 71q32 -102 95.5 -149t162.5 -47q136 0 206.5 94t80.5 291h-2q-121 -121 -334 -121q-226 0 -365 129t-139 340zM301 930
q0 -119 76 -186.5t209 -67.5q128 0 204 68.5t76 183.5q0 112 -77.5 182t-202.5 70q-131 0 -208 -67.5t-77 -182.5z" />
    <glyph glyph-name="colon" unicode=":" horiz-adv-x="638" 
d="M170 0v289h297v-289h-297zM170 672v289h297v-289h-297z" />
    <glyph glyph-name="semicolon" unicode=";" horiz-adv-x="647" 
d="M170 0v279h307v-246q0 -136 -74.5 -214t-220.5 -91v131q57 13 81 46t24 95h-117zM176 672v289h297v-289h-297z" />
    <glyph glyph-name="less" unicode="&#x3c;" horiz-adv-x="1130" 
d="M109 639v158l796 479l117 -182l-637 -375l637 -375l-117 -184z" />
    <glyph glyph-name="equal" unicode="=" horiz-adv-x="1150" 
d="M109 416v205h931v-205h-931zM109 813v205h931v-205h-931z" />
    <glyph glyph-name="greater" unicode="&#x3e;" horiz-adv-x="1130" 
d="M109 344l636 375l-636 375l116 182l797 -479v-158l-797 -479z" />
    <glyph glyph-name="question" unicode="?" horiz-adv-x="1261" 
d="M129 975q6 219 148.5 354t373.5 135q194 0 326.5 -112t132.5 -281q0 -111 -59 -194.5t-191 -163.5q-92 -57 -122.5 -95.5t-30.5 -95.5v-88h-238v119q0 93 47 161.5t154 131.5q104 61 144 109.5t40 111.5q0 73 -56 117.5t-147 44.5q-122 0 -189.5 -70.5t-78.5 -202.5z
M444 0v289h297v-289h-297z" />
    <glyph glyph-name="at" unicode="@" horiz-adv-x="1624" 
d="M109 598q-2 155 52.5 294t149 238.5t227 157t279.5 55.5q205 0 364.5 -90.5t247 -252t87.5 -367.5q0 -457 -302 -457q-148 0 -200 98h-4q-38 -47 -101 -73.5t-137 -26.5q-124 0 -197 63t-73 171q0 98 57 156t186 93q113 31 149 53t36 60q0 31 -28 51.5t-71 20.5
q-122 0 -147 -129l-180 37q23 123 110 192.5t217 69.5q132 0 213.5 -79.5t81.5 -217.5v-252q0 -71 21.5 -100t73.5 -29q122 0 122 299q0 252 -143.5 402.5t-382.5 150.5q-229 0 -382.5 -167.5t-153.5 -420.5q0 -283 138 -437.5t390 -154.5q185 0 360 84l64 -147
q-102 -51 -201.5 -73t-222.5 -22q-326 0 -513 200t-187 550zM698 424q0 -80 95 -80q61 0 100 33t39 84v131h-4q-6 -19 -33.5 -33t-106.5 -41q-50 -17 -70 -38t-20 -56z" />
    <glyph glyph-name="A" unicode="A" 
d="M-4 0l516 1434h236l514 -1434h-258l-84 246h-582l-84 -246h-258zM416 471h426l-211 608h-4z" />
    <glyph glyph-name="B" unicode="B" horiz-adv-x="1298" 
d="M154 0v1434h598q186 0 304 -107t118 -274q0 -92 -41 -165.5t-113 -111.5v-4q97 -41 152 -129.5t55 -204.5q0 -438 -531 -438h-542zM410 231h317q127 0 185.5 50t58.5 159q0 103 -59.5 152t-182.5 49h-319v-410zM410 850h303q100 0 152.5 45t52.5 131t-52.5 131t-152.5 45
h-303v-352z" />
    <glyph glyph-name="C" unicode="C" horiz-adv-x="1310" 
d="M72 717q0 337 170.5 542t451.5 205q225 0 379 -140t182 -368l-251 -41q-26 152 -106 233t-204 81q-172 0 -269 -136.5t-97 -375.5t97 -375.5t269 -136.5q131 0 211.5 87t100.5 253l254 -41q-25 -244 -179 -389.5t-387 -145.5q-283 0 -452.5 204t-169.5 544z" />
    <glyph glyph-name="D" unicode="D" horiz-adv-x="1327" 
d="M154 0v1434h477q286 0 455 -193t169 -524q0 -341 -168 -529t-460 -188h-473zM410 236h215q181 0 277.5 121t96.5 360q0 231 -97.5 356t-272.5 125h-219v-962z" />
    <glyph glyph-name="E" unicode="E" horiz-adv-x="1146" 
d="M154 0v1434h901v-236h-645v-350h587v-227h-587v-385h645v-236h-901z" />
    <glyph glyph-name="F" unicode="F" horiz-adv-x="1132" 
d="M154 0v1434h901v-236h-645v-405h598v-228h-598v-565h-256z" />
    <glyph glyph-name="G" unicode="G" horiz-adv-x="1323" 
d="M72 717q0 340 169.5 543.5t452.5 203.5q219 0 374 -135t183 -350l-252 -41q-26 140 -105 215.5t-200 75.5q-172 0 -269 -136.5t-97 -375.5t97 -375.5t269 -136.5q146 0 228 84.5t82 234.5h-291v217h534v-178q0 -267 -152 -430.5t-401 -163.5q-283 0 -452.5 204
t-169.5 544z" />
    <glyph glyph-name="H" unicode="H" horiz-adv-x="1345" 
d="M154 0v1434h256v-582h526v582h256v-1434h-256v618h-526v-618h-256z" />
    <glyph glyph-name="I" unicode="I" horiz-adv-x="563" 
d="M154 0v1434h256v-1434h-256z" />
    <glyph glyph-name="J" unicode="J" horiz-adv-x="1105" 
d="M47 414l246 32q12 -129 62 -185t153 -56q97 0 148 67.5t51 196.5v965h256v-990q0 -217 -127 -346t-328 -129q-208 0 -328 114.5t-133 330.5z" />
    <glyph glyph-name="K" unicode="K" horiz-adv-x="1284" 
d="M154 0v1434h256v-639h4l526 639h301l-526 -633l573 -801h-307l-424 608h-4l-143 -174v-434h-256z" />
    <glyph glyph-name="L" unicode="L" horiz-adv-x="1087" 
d="M154 0v1434h256v-1198h620v-236h-876z" />
    <glyph glyph-name="M" unicode="M" horiz-adv-x="1751" 
d="M154 0v1434h295l423 -1024h5l426 1024h294v-1434h-251v979h-5l-411 -979h-109l-411 979h-4v-979h-252z" />
    <glyph glyph-name="N" unicode="N" horiz-adv-x="1380" 
d="M154 0v1434h272l541 -1002h4v1002h256v-1434h-273l-540 1001h-4v-1001h-256z" />
    <glyph glyph-name="O" unicode="O" horiz-adv-x="1386" 
d="M72 717q0 337 170.5 542t451.5 205t451 -205t170 -542t-170 -542.5t-451 -205.5t-451.5 205.5t-170.5 542.5zM328 717q0 -239 97 -375.5t269 -136.5q170 0 267.5 137t97.5 375t-97.5 375t-267.5 137t-268 -137t-98 -375z" />
    <glyph glyph-name="P" unicode="P" 
d="M154 0v1434h575q227 0 359.5 -123.5t132.5 -337.5q0 -216 -131 -337.5t-363 -121.5h-317v-514h-256zM410 750h313q115 0 178.5 58.5t63.5 164.5q0 225 -242 225h-313v-448z" />
    <glyph glyph-name="Q" unicode="Q" horiz-adv-x="1398" 
d="M72 717q0 337 170.5 542t451.5 205t451 -205t170 -542q0 -289 -125 -481l135 -140l-135 -127l-123 127q-157 -127 -373 -127q-281 0 -451.5 205.5t-170.5 542.5zM328 717q0 -239 97 -375.5t269 -136.5q118 0 201 65l-279 287l138 125l254 -260q51 122 51 295
q0 238 -97.5 375t-267.5 137t-268 -137t-98 -375z" />
    <glyph glyph-name="R" unicode="R" horiz-adv-x="1263" 
d="M154 0v1434h561q226 0 355.5 -120t129.5 -329q0 -161 -80.5 -273t-228.5 -155v-2l301 -555h-281l-284 532h-217v-532h-256zM410 768h276q127 0 192.5 55.5t65.5 161.5q0 213 -258 213h-276v-430z" />
    <glyph glyph-name="S" unicode="S" horiz-adv-x="1218" 
d="M51 473l252 51q26 -170 108.5 -245.5t243.5 -75.5q118 0 187 46t69 126q0 88 -70 142.5t-263 117.5q-257 86 -358 181.5t-101 252.5q0 173 133 284t342 111q208 0 352 -114q147 -114 182 -306l-249 -53q-32 122 -102.5 181t-182.5 59q-100 0 -160.5 -44.5t-60.5 -117.5
q0 -62 61 -108q61 -43 232 -99q276 -92 388.5 -201.5t112.5 -283.5q0 -182 -143 -295t-373 -113q-259 0 -412 129t-188 375z" />
    <glyph glyph-name="T" unicode="T" horiz-adv-x="1222" 
d="M57 1198v236h1108v-236h-426v-1198h-256v1198h-426z" />
    <glyph glyph-name="U" unicode="U" horiz-adv-x="1359" 
d="M143 471v963h256v-947q0 -282 279 -282q283 0 283 278v951h256v-963q0 -238 -141.5 -370t-397.5 -132q-253 0 -394 132t-141 370z" />
    <glyph glyph-name="V" unicode="V" horiz-adv-x="1288" 
d="M-4 1434h272l375 -1078h4l375 1078h270l-518 -1434h-260z" />
    <glyph glyph-name="W" unicode="W" horiz-adv-x="1812" 
d="M27 1434h264l198 -1022h5l292 1022h240l293 -1022h4l201 1022h260l-289 -1434h-283l-305 1047h-4l-303 -1047h-281z" />
    <glyph glyph-name="X" unicode="X" horiz-adv-x="1212" 
d="M6 0l449 727l-437 707h291l295 -516h4l295 516h291l-438 -707l448 -727h-289l-307 537h-4l-307 -537h-291z" />
    <glyph glyph-name="Y" unicode="Y" horiz-adv-x="1202" 
d="M-14 1434h278l334 -617h4l334 617h278l-485 -846v-588h-256v588z" />
    <glyph glyph-name="Z" unicode="Z" horiz-adv-x="1198" 
d="M78 0v213l725 981v4h-699v236h1016v-213l-725 -981v-4h717v-236h-1034z" />
    <glyph glyph-name="bracketleft" unicode="[" horiz-adv-x="649" 
d="M154 -373v1868h467v-209h-248v-1448h248v-211h-467z" />
    <glyph glyph-name="backslash" unicode="\" horiz-adv-x="933" 
d="M18 1464l156 72l744 -1567l-158 -67z" />
    <glyph glyph-name="bracketright" unicode="]" horiz-adv-x="649" 
d="M29 -162h247v1448h-247v209h467v-1868h-467v211z" />
    <glyph glyph-name="asciicircum" unicode="^" horiz-adv-x="1218" 
d="M129 666l358 768h244l356 -768h-235l-242 553l-243 -553h-238z" />
    <glyph glyph-name="underscore" unicode="_" horiz-adv-x="1236" 
d="M88 -150h1061v-192h-1061v192z" />
    <glyph glyph-name="grave" unicode="`" horiz-adv-x="659" 
d="M109 1475h266l174 -267h-205z" />
    <glyph glyph-name="a" unicode="a" horiz-adv-x="1060" 
d="M72 762q28 164 151 256q125 98 309 98q197 0 311.5 -105t114.5 -288v-723h-223v94h-4q-41 -60 -118 -92.5t-177 -32.5q-162 0 -259 87t-97 233q0 137 89 217t298 129q139 36 189.5 66.5t50.5 80.5q0 57 -46.5 90t-128.5 33q-92 0 -152 -50.5t-77 -141.5zM317 305
q0 -123 160 -123q106 0 173 51.5t67 133.5v186h-4q-17 -30 -60.5 -52.5t-128.5 -47.5q-112 -29 -159.5 -63t-47.5 -85z" />
    <glyph glyph-name="b" unicode="b" horiz-adv-x="1212" 
d="M113 0v1495h245v-489h4q110 110 291 110q212 0 350 -162t138 -411q0 -164 -62.5 -295t-173.5 -205t-250 -74q-97 0 -178 35t-131 96h-4v-100h-229zM358 457q0 -112 74 -189q73 -73 182 -73q130 0 205.5 93.5t75.5 254.5t-74 254.5t-203 93.5q-112 0 -186 -74.5
t-74 -185.5v-174z" />
    <glyph glyph-name="c" unicode="c" horiz-adv-x="1134" 
d="M72 543q0 255 144.5 414t373.5 159q192 0 322 -107t161 -290l-235 -45q-19 104 -83.5 160.5t-164.5 56.5q-125 0 -199 -94.5t-74 -253.5t74 -253.5t199 -94.5q102 0 165.5 56t82.5 161l235 -45q-31 -183 -161 -290.5t-322 -107.5q-229 0 -373.5 159.5t-144.5 414.5z" />
    <glyph glyph-name="d" unicode="d" horiz-adv-x="1212" 
d="M72 543q0 249 137.5 411t349.5 162q181 0 291 -110h4v489h246v-1495h-230v100h-4q-50 -61 -131 -96t-178 -35q-139 0 -250 74t-173 205t-62 295zM317 543q0 -161 75.5 -254.5t205.5 -93.5q109 0 182 73q74 77 74 189v174q0 111 -74 185.5t-186 74.5q-129 0 -203 -93.5
t-74 -254.5z" />
    <glyph glyph-name="e" unicode="e" horiz-adv-x="1150" 
d="M72 543q0 253 142 413t364 160q225 0 363 -155.5t138 -405.5v-84h-760q6 -131 77 -210t186 -79q90 0 156 42t128 136l181 -131q-148 -260 -465 -260q-226 0 -368 159t-142 415zM322 651h514q-6 117 -74 184.5t-182 67.5q-106 0 -179 -71.5t-79 -180.5z" />
    <glyph glyph-name="f" unicode="f" horiz-adv-x="772" 
d="M20 866v219h203v113q0 132 79 206.5t224 74.5h189v-222h-160q-86 0 -86 -83v-89h285v-219h-285v-866h-246v866h-203z" />
    <glyph glyph-name="g" unicode="g" horiz-adv-x="1202" 
d="M72 543q0 161 62.5 290.5t174 203t250.5 73.5q91 0 168.5 -31t128.5 -88h4v94h240v-1099q0 -217 -134.5 -347.5t-355.5 -130.5q-155 0 -281 72t-194 197l195 131q60 -97 124 -137.5t158 -40.5q116 0 182 71t66 195v98h-4q-41 -57 -123 -91t-176 -34q-210 0 -347.5 163
t-137.5 411zM317 543q0 -161 75.5 -254.5t205.5 -93.5q110 0 182 75q74 77 74 187v166q0 113 -74 186.5t-186 73.5q-129 0 -203 -91t-74 -249z" />
    <glyph glyph-name="h" unicode="h" horiz-adv-x="1159" 
d="M113 0v1495h245v-506h4q47 60 124 93.5t165 33.5q182 0 294 -112t112 -293v-711h-246v657q0 109 -58.5 169.5t-164.5 60.5q-105 0 -167.5 -62.5t-62.5 -167.5v-657h-245z" />
    <glyph glyph-name="i" unicode="i" horiz-adv-x="471" 
d="M106 1270v248h259v-248h-259zM113 0v1085h245v-1085h-245z" />
    <glyph glyph-name="j" unicode="j" horiz-adv-x="503" 
d="M-55 -166h104q54 0 75 17.5t21 60.5v1173h246v-1181q0 -158 -77 -227.5t-248 -69.5h-121v227zM137 1270v248h258v-248h-258z" />
    <glyph glyph-name="k" unicode="k" horiz-adv-x="1114" 
d="M113 0v1495h245v-846h4l386 436h321l-395 -430l411 -655h-278l-293 489h-4l-152 -170v-319h-245z" />
    <glyph glyph-name="l" unicode="l" horiz-adv-x="471" 
d="M113 0v1495h245v-1495h-245z" />
    <glyph glyph-name="m" unicode="m" horiz-adv-x="1699" 
d="M113 0v1085h231v-92h4q44 57 118 90t159 33q84 0 160 -36.5t120 -98.5h4q114 135 293 135q172 0 283.5 -110t111.5 -275v-731h-239v688q0 93 -52.5 148t-140.5 55t-141 -58t-53 -155v-678h-232v688q0 94 -52 148.5t-140 54.5t-141.5 -58t-53.5 -155v-678h-239z" />
    <glyph glyph-name="n" unicode="n" horiz-adv-x="1159" 
d="M113 0v1085h235v-96h4q47 57 129 92t170 35q184 0 295 -114.5t111 -305.5v-696h-246v657q0 109 -58.5 169.5t-164.5 60.5q-105 0 -167.5 -62.5t-62.5 -167.5v-657h-245z" />
    <glyph glyph-name="o" unicode="o" horiz-adv-x="1198" 
d="M72 543q0 256 146 414.5t380 158.5q235 0 381.5 -158.5t146.5 -414.5t-146.5 -415t-381.5 -159q-234 0 -380 159t-146 415zM317 543q0 -164 75 -256t206 -92q133 0 208 93t75 255t-75 255t-208 93q-131 0 -206 -92t-75 -256z" />
    <glyph glyph-name="p" unicode="p" horiz-adv-x="1212" 
d="M113 -461v1546h239v-86h4q114 117 297 117q212 0 350 -162t138 -411q0 -164 -62.5 -295t-173.5 -205t-250 -74q-90 0 -167.5 31.5t-125.5 85.5h-4v-547h-245zM358 457q0 -112 74 -189q73 -73 182 -73q130 0 205.5 93.5t75.5 254.5t-74 254.5t-203 93.5q-112 0 -186 -74.5
t-74 -185.5v-174z" />
    <glyph glyph-name="q" unicode="q" horiz-adv-x="1212" 
d="M72 543q0 249 137.5 411t349.5 162q183 0 297 -117h4v86h240v-1546h-246v547h-4q-48 -54 -125.5 -85.5t-167.5 -31.5q-139 0 -250 74t-173 205t-62 295zM317 543q0 -161 75.5 -254.5t205.5 -93.5q109 0 182 73q74 77 74 189v174q0 111 -74 185.5t-186 74.5
q-129 0 -203 -93.5t-74 -254.5z" />
    <glyph glyph-name="r" unicode="r" horiz-adv-x="729" 
d="M113 0v1085h231v-94h4q36 54 96 84.5t134 30.5q69 0 131 -19l-43 -239q-68 18 -117 18q-191 0 -191 -258v-608h-245z" />
    <glyph glyph-name="s" unicode="s" horiz-adv-x="1024" 
d="M51 356l223 58q26 -123 91.5 -179.5t183.5 -56.5q88 0 139 30t51 81q0 61 -57.5 99t-200.5 81q-99 28 -159.5 53t-112.5 62t-76 88t-27 123q0 137 115 229t285 92q165 0 287 -88t159 -231l-225 -64q-26 85 -83.5 129.5t-137.5 44.5q-75 0 -120.5 -29.5t-45.5 -78.5
q0 -41 48.5 -69t168.5 -62q83 -24 141 -45.5t112.5 -52.5t87.5 -67.5t53 -87.5t22 -116q0 -149 -116 -239.5t-308 -90.5q-207 0 -337 100.5t-161 286.5z" />
    <glyph glyph-name="t" unicode="t" horiz-adv-x="759" 
d="M20 866v219h179v265h245v-265h269v-219h-269v-538q0 -54 24.5 -73t90.5 -19h109v-236h-131q-183 0 -260.5 72t-77.5 243v551h-179z" />
    <glyph glyph-name="u" unicode="u" horiz-adv-x="1134" 
d="M92 375v710h246v-659q0 -231 217 -231q100 0 160.5 63.5t60.5 167.5v659h246v-1085h-238v96h-4q-47 -60 -127 -93.5t-172 -33.5q-184 0 -286.5 107t-102.5 299z" />
    <glyph glyph-name="v" unicode="v" horiz-adv-x="1148" 
d="M6 1085h262l303 -759h4l304 759h262l-455 -1085h-225z" />
    <glyph glyph-name="w" unicode="w" horiz-adv-x="1601" 
d="M37 1085h244l157 -745h4l250 745h217l250 -745h4l158 745h244l-250 -1085h-242l-270 795h-4l-271 -795h-241z" />
    <glyph glyph-name="x" unicode="x" horiz-adv-x="1048" 
d="M-4 0l379 551l-369 534h289l227 -354h4l226 354h290l-370 -534l379 -551h-289l-236 369h-4l-235 -369h-291z" />
    <glyph glyph-name="y" unicode="y" horiz-adv-x="1097" 
d="M6 1085h256l285 -731h4l287 731h254l-633 -1546h-252l217 529z" />
    <glyph glyph-name="z" unicode="z" horiz-adv-x="1069" 
d="M55 0v203l600 655v4h-581v223h917v-202l-600 -656v-4h623v-223h-959z" />
    <glyph glyph-name="braceleft" unicode="{" horiz-adv-x="772" 
d="M109 444v277h57q65 0 87.5 25.5t22.5 95.5v340q0 167 72.5 240t237.5 73h157v-219h-122q-69 0 -97 -35t-28 -121v-334q0 -91 -47 -146.5t-117 -55.5v-4q71 0 117.5 -55.5t46.5 -145.5v-375q0 -86 28 -121t97 -35h122v-221h-157q-164 0 -237 74t-73 240v383
q0 69 -23.5 94.5t-86.5 25.5h-57z" />
    <glyph glyph-name="bar" unicode="|" horiz-adv-x="552" 
d="M190 -614v2201h172v-2201h-172z" />
    <glyph glyph-name="braceright" unicode="}" horiz-adv-x="772" 
d="M29 -152h123q69 0 96.5 35t27.5 121v375q0 90 46.5 145.5t117.5 55.5v4q-70 0 -117 55.5t-47 146.5v334q0 86 -27.5 121t-96.5 35h-123v219h157q165 0 237.5 -73t72.5 -240v-340q0 -70 22.5 -95.5t87.5 -25.5h58v-277h-58q-63 0 -86.5 -25.5t-23.5 -94.5v-383
q0 -166 -73 -240t-237 -74h-157v221z" />
    <glyph glyph-name="asciitilde" unicode="~" horiz-adv-x="1402" 
d="M109 598q43 160 136 243t230 83q68 0 130 -23t157 -76q71 -38 102 -50.5t60 -12.5q49 0 83 38.5t60 123.5l227 -80q-43 -160 -136 -243t-228 -83q-69 0 -130.5 22.5t-160.5 75.5q-61 35 -95.5 49.5t-64.5 14.5q-48 0 -82.5 -39t-60.5 -123z" />
    <glyph glyph-name="uni00A0" unicode="&#xa0;" horiz-adv-x="532" 
 />
    <glyph glyph-name="exclamdown" unicode="&#xa1;" horiz-adv-x="645" 
d="M174 797v288h297v-288h-297zM195 -348v966h256v-966h-256z" />
    <glyph glyph-name="cent" unicode="&#xa2;" horiz-adv-x="1265" 
d="M92 543q0 238 141.5 395t368.5 176v178h123v-180q183 -17 306.5 -122.5t152.5 -270.5l-232 -45q-19 91 -77 146.5t-150 68.5v-692q92 14 151 69t76 146l232 -45q-29 -166 -152.5 -271.5t-306.5 -122.5v-198h-123v196q-227 19 -368.5 176.5t-141.5 395.5zM332 543
q0 -146 72.5 -238.5t197.5 -109.5v696q-125 -17 -197.5 -109.5t-72.5 -238.5z" />
    <glyph glyph-name="sterling" unicode="&#xa3;" horiz-adv-x="1277" 
d="M129 0v238h94q98 0 154.5 54.5t56.5 145.5q0 73 -41 150h-264v209h133q-49 73 -72.5 132t-23.5 126q0 186 139 297.5t369 111.5t377 -114t168 -308l-252 -41q-17 116 -89 172t-202 56q-113 0 -178.5 -50.5t-65.5 -136.5q0 -55 25.5 -112t79.5 -133h436v-209h-332
q27 -70 27 -133q0 -133 -80 -213v-4h592v-238h-1051z" />
    <glyph glyph-name="currency" unicode="&#xa4;" horiz-adv-x="1193" 
d="M72 236l137 137q-92 127 -92 303q0 168 88 299l-133 135l90 88l127 -129q133 109 307 109q175 0 307 -111l131 131l88 -88l-135 -135q88 -131 88 -299q0 -170 -92 -303l139 -135l-90 -88l-133 133q-128 -107 -303 -107q-171 0 -303 105l-131 -131zM362 674
q0 -130 61.5 -201.5t174.5 -71.5q109 0 170 72t61 201q0 131 -61 204.5t-170 73.5q-113 0 -174.5 -72.5t-61.5 -205.5z" />
    <glyph glyph-name="yen" unicode="&#xa5;" horiz-adv-x="1243" 
d="M6 1434h279l333 -617h5l333 617h279l-416 -723h326v-195h-395v-113h395v-194h-395v-209h-256v209h-404v194h404v113h-404v195h332z" />
    <glyph glyph-name="brokenbar" unicode="&#xa6;" horiz-adv-x="552" 
d="M190 256h172v-870h-172v870zM190 717v870h172v-870h-172z" />
    <glyph glyph-name="section" unicode="&#xa7;" horiz-adv-x="1329" 
d="M150 573q0 154 174 279q-103 103 -103 240q0 158 119 265t303 107q195 0 313 -106q123 -111 138 -279l-248 -30q-12 89 -63 136.5t-136 47.5q-78 0 -124 -39t-46 -102q0 -60 45.5 -99.5t167.5 -89.5l203 -82q156 -62 221.5 -137.5t65.5 -185.5q0 -154 -174 -279
q102 -102 102 -239q0 -159 -119 -266t-303 -107q-193 0 -313 108q-122 110 -137 279l247 29q12 -88 62.5 -135.5t136.5 -47.5q78 0 124 39t46 101q0 59 -45 98.5t-168 89.5l-203 82q-155 62 -220.5 138.5t-65.5 184.5zM393 586q0 -39 37.5 -70.5t138.5 -73.5l224 -90l41 -18
q102 74 102 151q0 39 -39 71t-137 73l-221 90l-43 18q-103 -74 -103 -151z" />
    <glyph glyph-name="dieresis" unicode="&#xa8;" horiz-adv-x="866" 
d="M109 1188v237h241v-237h-241zM514 1188v237h242v-237h-242z" />
    <glyph glyph-name="copyright" unicode="&#xa9;" horiz-adv-x="1437" 
d="M88 662q-2 129 47 246.5t133.5 202.5t202.5 134t248 47q132 2 250 -47t202 -134t132.5 -202.5t46.5 -246.5q2 -173 -80.5 -318.5t-228.5 -229.5t-322 -81q-176 -3 -322 81t-228.5 229.5t-80.5 318.5zM231 662q0 -209 139 -353.5t349 -144.5q136 -3 249.5 65.5t176.5 184
t61 248.5q2 135 -61 250.5t-176.5 183.5t-249.5 65q-102 2 -194 -37.5t-156.5 -107.5t-101.5 -160.5t-36 -193.5zM403 664q0 161 92 263.5t234 102.5q122 0 207 -71.5t98 -186.5l-151 -31q-12 67 -52 103.5t-102 36.5q-74 0 -117 -58.5t-43 -158.5t43.5 -159t116.5 -59
q62 0 102 35.5t52 102.5l151 -31q-13 -115 -98 -186.5t-207 -71.5q-141 0 -233.5 104t-92.5 265z" />
    <glyph glyph-name="ordfeminine" unicode="&#xaa;" horiz-adv-x="575" 
d="M25 1255q12 85 83 139t171 54q110 0 175.5 -58t65.5 -155v-367h-135v50h-2q-46 -64 -162 -64q-88 0 -140 44t-52 118q0 75 51 118t168 68q67 13 92 27t25 37q0 25 -22.5 39t-59.5 14q-95 0 -113 -90zM182 1030q0 -23 19.5 -35t52.5 -12q49 0 82 26.5t33 65.5v64h-2
q-11 -21 -86 -43q-55 -13 -77 -28t-22 -38z" />
    <glyph glyph-name="guillemotleft" unicode="&#xab;" horiz-adv-x="1056" 
d="M129 567l229 391h220l-234 -391l234 -391h-220zM500 567l229 391h219l-233 -391l233 -391h-219z" />
    <glyph glyph-name="logicalnot" unicode="&#xac;" horiz-adv-x="1325" 
d="M109 686v236h1108v-600h-256v364h-852z" />
    <glyph glyph-name="uni00AD" unicode="&#xad;" horiz-adv-x="733" 
d="M88 489v228h555v-228h-555z" />
    <glyph glyph-name="registered" unicode="&#xae;" horiz-adv-x="1437" 
d="M88 662q-2 129 47 246.5t133.5 202.5t202.5 134t248 47q132 2 250 -47t202 -134t132.5 -202.5t46.5 -246.5q2 -173 -80.5 -318.5t-228.5 -229.5t-322 -81q-176 -3 -322 81t-228.5 229.5t-80.5 318.5zM231 662q0 -209 139 -353.5t349 -144.5q136 -3 249.5 65.5t176.5 184
t61 248.5q2 135 -61 250.5t-176.5 183.5t-249.5 65q-102 2 -194 -37.5t-156.5 -107.5t-101.5 -160.5t-36 -193.5zM481 309v707h289q123 0 190.5 -58.5t67.5 -162.5q0 -79 -38.5 -135.5t-110.5 -81.5l139 -269h-176l-121 252h-80v-252h-160zM643 692h117q49 0 76.5 27.5
t27.5 75.5q0 90 -104 90h-117v-193z" />
    <glyph glyph-name="macron" unicode="&#xaf;" horiz-adv-x="831" 
d="M109 1208v160h612v-160h-612z" />
    <glyph glyph-name="degree" unicode="&#xb0;" horiz-adv-x="919" 
d="M68 1071q0 161 112.5 267t280.5 106q167 0 279 -106t112 -267t-112.5 -268t-278.5 -107q-168 0 -280.5 107t-112.5 268zM270 1071q0 -82 53 -134t138 -52t136.5 50.5t51.5 135.5q0 82 -52 133t-136 51q-85 0 -138 -51t-53 -133z" />
    <glyph glyph-name="plusminus" unicode="&#xb1;" horiz-adv-x="1234" 
d="M109 811v201h403v377h213v-377h399v-201h-399v-377h-213v377h-403zM111 106v207h1015v-207h-1015z" />
    <glyph glyph-name="acute" unicode="&#xb4;" horiz-adv-x="659" 
d="M109 1208l174 267h266l-236 -267h-204z" />
    <glyph glyph-name="paragraph" unicode="&#xb6;" horiz-adv-x="1327" 
d="M47 1114q0 147 89 233.5t231 86.5h788v-1713h-256v1473h-285v-1473h-256v1076q-131 3 -221 92.5t-90 224.5z" />
    <glyph glyph-name="periodcentered" unicode="&#xb7;" horiz-adv-x="516" 
d="M111 629v289h297v-289h-297z" />
    <glyph glyph-name="cedilla" unicode="&#xb8;" horiz-adv-x="675" 
d="M109 -397l86 114q69 -57 131 -57q41 0 66.5 22.5t25.5 57.5q0 32 -24.5 52t-65.5 20q-61 0 -105 -50l-104 48l139 253l109 -47l-60 -98q24 6 53 6q88 0 146.5 -54t58.5 -138q0 -97 -63.5 -154t-169.5 -57q-125 0 -223 82z" />
    <glyph glyph-name="ordmasculine" unicode="&#xba;" horiz-adv-x="634" 
d="M25 1151q0 130 82 213.5t210 83.5q129 0 211 -84t82 -213t-82 -213t-211 -84q-128 0 -210 83.5t-82 213.5zM184 1151q0 -69 36 -110.5t97 -41.5t97.5 41.5t36.5 110.5t-36.5 110.5t-97.5 41.5t-97 -41.5t-36 -110.5z" />
    <glyph glyph-name="guillemotright" unicode="&#xbb;" horiz-adv-x="1056" 
d="M109 176l233 391l-233 391h219l229 -391l-229 -391h-219zM479 176l234 391l-234 391h219l230 -391l-230 -391h-219z" />
    <glyph glyph-name="onequarter" unicode="&#xbc;" horiz-adv-x="1744" 
d="M45 1116v189l223 129h176v-861h-188v666zM217 -70l997 1655l158 -94l-995 -1651zM969 139v174l342 547h303v-549h108v-172h-108v-139h-189v139h-456zM1161 311h264v422h-2z" />
    <glyph glyph-name="onehalf" unicode="&#xbd;" horiz-adv-x="1775" 
d="M45 1116v189l223 129h176v-861h-188v666zM217 -70l997 1655l158 -94l-995 -1651zM1065 571q6 141 98.5 224.5t241.5 83.5q139 0 227 -75t88 -192q0 -97 -57 -161.5t-197 -126.5q-143 -64 -172 -93q-19 -19 -22 -59h442v-172h-641v127q0 120 53 182q56 71 222 140
q111 50 147.5 82t36.5 81q0 45 -35 73t-92 28q-69 0 -110.5 -40.5t-45.5 -113.5z" />
    <glyph glyph-name="threequarters" unicode="&#xbe;" horiz-adv-x="1927" 
d="M45 860l180 35q24 -172 170 -172q60 0 93.5 30t33.5 81q0 108 -133 108h-86v150h72q60 0 92.5 25t32.5 69t-32.5 71t-86.5 27q-57 0 -94.5 -32t-48.5 -89l-183 31q19 117 107.5 187.5t218.5 70.5q131 0 216 -70t85 -178t-100 -170v-2q60 -32 93.5 -87t33.5 -124
q0 -116 -87.5 -191t-226.5 -75q-147 0 -240 81t-110 224zM399 -70l998 1655l157 -94l-995 -1651zM1151 139v174l342 547h303v-549h109v-172h-109v-139h-188v139h-457zM1343 311h265v422h-2z" />
    <glyph glyph-name="questiondown" unicode="&#xbf;" horiz-adv-x="1261" 
d="M152 14q0 112 58.5 195.5t190.5 163.5q92 57 123 95t31 95v88h238v-119q0 -93 -47 -160.5t-154 -131.5q-104 -61 -144 -110t-40 -112q0 -73 55.5 -117t146.5 -44q122 0 190 70t79 202l254 -18q-6 -219 -149 -354.5t-374 -135.5q-194 0 -326 112t-132 281zM520 797v288
h297v-288h-297z" />
    <glyph glyph-name="Agrave" unicode="&#xc0;" 
d="M-4 0l516 1434h236l514 -1434h-258l-84 246h-582l-84 -246h-258zM315 1823h267l174 -267h-205zM416 471h426l-211 608h-4z" />
    <glyph glyph-name="Aacute" unicode="&#xc1;" 
d="M-4 0l516 1434h236l514 -1434h-258l-84 246h-582l-84 -246h-258zM416 471h426l-211 608h-4zM502 1556l174 267h266l-235 -267h-205z" />
    <glyph glyph-name="Acircumflex" unicode="&#xc2;" 
d="M-4 0l516 1434h236l514 -1434h-258l-84 246h-582l-84 -246h-258zM352 1620l142 178h274l139 -178l-133 -104l-143 182l-146 -182zM416 471h426l-211 608h-4z" />
    <glyph glyph-name="Atilde" unicode="&#xc3;" 
d="M-4 0l516 1434h236l514 -1434h-258l-84 246h-582l-84 -246h-258zM305 1556q4 104 57 164t138 60q66 0 155 -47q1 0 20.5 -9t42 -16.5t38.5 -7.5q56 0 71 69h127q-4 -105 -55.5 -164t-136.5 -59q-72 0 -158 47q-1 0 -20 9t-42 16.5t-38 7.5q-57 0 -72 -70h-127zM416 471
h426l-211 608h-4z" />
    <glyph glyph-name="Adieresis" unicode="&#xc4;" 
d="M-4 0l516 1434h236l514 -1434h-258l-84 246h-582l-84 -246h-258zM307 1536v238h242v-238h-242zM416 471h426l-211 608h-4zM713 1536v238h241v-238h-241z" />
    <glyph glyph-name="Aring" unicode="&#xc5;" 
d="M-4 0l516 1434h236l514 -1434h-258l-84 246h-582l-84 -246h-258zM344 1571q0 113 81.5 186.5t205.5 73.5q125 0 207 -74t82 -186t-82 -186t-207 -74q-124 0 -205.5 73.5t-81.5 186.5zM416 471h426l-211 608h-4zM494 1571q0 -60 38 -98.5t99 -38.5t100 38.5t39 98.5
t-39 98.5t-100 38.5t-99 -38.5t-38 -98.5z" />
    <glyph glyph-name="AE" unicode="&#xc6;" horiz-adv-x="1767" 
d="M-4 0l612 1434h1065v-226h-526v-366h471v-217h-471v-402h528v-223h-772v258h-522l-107 -258h-278zM471 477h432v731h-129z" />
    <glyph glyph-name="Ccedilla" unicode="&#xc7;" horiz-adv-x="1310" 
d="M72 717q0 337 170.5 542t451.5 205q225 0 379 -140t182 -368l-251 -41q-26 152 -106 233t-204 81q-172 0 -269 -136.5t-97 -375.5t97 -375.5t269 -136.5q131 0 211.5 87t100.5 253l254 -41q-25 -244 -179 -389.5t-387 -145.5q-283 0 -452.5 204t-169.5 544zM500 -426
l86 115q70 -58 131 -58q41 0 66.5 22.5t25.5 57.5q0 32 -24.5 52t-65.5 20q-62 0 -105 -49l-104 47l139 254l109 -47l-60 -99q28 7 54 7q88 0 146 -54.5t58 -138.5q0 -97 -63.5 -154t-169.5 -57q-125 0 -223 82z" />
    <glyph glyph-name="Egrave" unicode="&#xc8;" horiz-adv-x="1146" 
d="M154 0v1434h901v-236h-645v-350h587v-227h-587v-385h645v-236h-901zM307 1823h266l175 -267h-205z" />
    <glyph glyph-name="Eacute" unicode="&#xc9;" horiz-adv-x="1146" 
d="M154 0v1434h901v-236h-645v-350h587v-227h-587v-385h645v-236h-901zM494 1556l174 267h266l-236 -267h-204z" />
    <glyph glyph-name="Ecircumflex" unicode="&#xca;" horiz-adv-x="1146" 
d="M154 0v1434h901v-236h-645v-350h587v-227h-587v-385h645v-236h-901zM344 1620l141 178h275l139 -178l-133 -104l-143 182l-146 -182z" />
    <glyph glyph-name="Edieresis" unicode="&#xcb;" horiz-adv-x="1146" 
d="M154 0v1434h901v-236h-645v-350h587v-227h-587v-385h645v-236h-901zM299 1536v238h242v-238h-242zM705 1536v238h241v-238h-241z" />
    <glyph glyph-name="Igrave" unicode="&#xcc;" horiz-adv-x="563" 
d="M-33 1823h266l175 -267h-205zM154 0v1434h256v-1434h-256z" />
    <glyph glyph-name="Iacute" unicode="&#xcd;" horiz-adv-x="563" 
d="M154 0v1434h256v-1434h-256zM154 1556l174 267h266l-236 -267h-204z" />
    <glyph glyph-name="Icircumflex" unicode="&#xce;" horiz-adv-x="563" 
d="M4 1620l141 178h275l139 -178l-133 -104l-143 182l-146 -182zM154 0v1434h256v-1434h-256z" />
    <glyph glyph-name="Idieresis" unicode="&#xcf;" horiz-adv-x="563" 
d="M-41 1536v238h242v-238h-242zM154 0v1434h256v-1434h-256zM365 1536v238h241v-238h-241z" />
    <glyph glyph-name="Eth" unicode="&#xd0;" horiz-adv-x="1327" 
d="M-20 616v207h745v-207h-745zM154 0v1434h477q286 0 455 -193t169 -524q0 -341 -168 -529t-460 -188h-473zM410 236h215q181 0 277.5 121t96.5 360q0 231 -97.5 356t-272.5 125h-219v-962z" />
    <glyph glyph-name="Ntilde" unicode="&#xd1;" horiz-adv-x="1380" 
d="M154 0v1434h272l541 -1002h4v1002h256v-1434h-273l-540 1001h-4v-1001h-256zM365 1556q4 104 56.5 164t137.5 60q67 0 156 -47q1 0 20 -9t42 -16.5t38 -7.5q57 0 72 69h127q-4 -105 -56 -164t-137 -59q-71 0 -157 47q-1 0 -20.5 9t-42 16.5t-38.5 7.5q-56 0 -71 -70h-127
z" />
    <glyph glyph-name="Ograve" unicode="&#xd2;" horiz-adv-x="1386" 
d="M72 717q0 337 170.5 542t451.5 205t451 -205t170 -542t-170 -542.5t-451 -205.5t-451.5 205.5t-170.5 542.5zM328 717q0 -239 97 -375.5t269 -136.5q170 0 267.5 137t97.5 375t-97.5 375t-267.5 137t-268 -137t-98 -375zM379 1853h266l174 -266h-205z" />
    <glyph glyph-name="Oacute" unicode="&#xd3;" horiz-adv-x="1386" 
d="M72 717q0 337 170.5 542t451.5 205t451 -205t170 -542t-170 -542.5t-451 -205.5t-451.5 205.5t-170.5 542.5zM328 717q0 -239 97 -375.5t269 -136.5q170 0 267.5 137t97.5 375t-97.5 375t-267.5 137t-268 -137t-98 -375zM565 1587l174 266h267l-236 -266h-205z" />
    <glyph glyph-name="Ocircumflex" unicode="&#xd4;" horiz-adv-x="1386" 
d="M72 717q0 337 170.5 542t451.5 205t451 -205t170 -542t-170 -542.5t-451 -205.5t-451.5 205.5t-170.5 542.5zM328 717q0 -239 97 -375.5t269 -136.5q170 0 267.5 137t97.5 375t-97.5 375t-267.5 137t-268 -137t-98 -375zM416 1651l141 178h274l140 -178l-133 -105
l-144 183l-145 -183z" />
    <glyph glyph-name="Otilde" unicode="&#xd5;" horiz-adv-x="1386" 
d="M72 717q0 337 170.5 542t451.5 205t451 -205t170 -542t-170 -542.5t-451 -205.5t-451.5 205.5t-170.5 542.5zM328 717q0 -239 97 -375.5t269 -136.5q170 0 267.5 137t97.5 375t-97.5 375t-267.5 137t-268 -137t-98 -375zM369 1587q4 104 56.5 163.5t137.5 59.5
q67 0 156 -47q1 0 20 -8.5t41.5 -16t38.5 -7.5q57 0 72 69h127q-4 -105 -56 -164t-137 -59q-71 0 -157 47q-1 0 -20.5 9t-42 16.5t-38.5 7.5q-56 0 -71 -70h-127z" />
    <glyph glyph-name="Odieresis" unicode="&#xd6;" horiz-adv-x="1386" 
d="M72 717q0 337 170.5 542t451.5 205t451 -205t170 -542t-170 -542.5t-451 -205.5t-451.5 205.5t-170.5 542.5zM328 717q0 -239 97 -375.5t269 -136.5q170 0 267.5 137t97.5 375t-97.5 375t-267.5 137t-268 -137t-98 -375zM371 1567v237h241v-237h-241zM776 1567v237h242
v-237h-242z" />
    <glyph glyph-name="multiply" unicode="&#xd7;" horiz-adv-x="1144" 
d="M109 373l327 323l-327 324l143 137l319 -326l324 326l139 -137l-325 -324l325 -323l-139 -140l-324 326l-319 -326z" />
    <glyph glyph-name="Oslash" unicode="&#xd8;" horiz-adv-x="1386" 
d="M72 717q0 337 170.5 542t451.5 205q163 0 289 -69l61 110l130 -71l-72 -129q103 -99 158 -249.5t55 -338.5q0 -337 -170 -542.5t-451 -205.5q-160 0 -288 70l-62 -111l-131 72l72 129q-213 207 -213 588zM324 717q0 -222 86 -361l458 832q-77 47 -174 47
q-172 0 -271 -138.5t-99 -379.5zM518 246q77 -47 176 -47q172 0 270.5 138.5t98.5 379.5q0 221 -86 360z" />
    <glyph glyph-name="Ugrave" unicode="&#xd9;" horiz-adv-x="1359" 
d="M143 471v963h256v-947q0 -282 279 -282q283 0 283 278v951h256v-963q0 -238 -141.5 -370t-397.5 -132q-253 0 -394 132t-141 370zM365 1823h266l174 -267h-205z" />
    <glyph glyph-name="Uacute" unicode="&#xda;" horiz-adv-x="1359" 
d="M143 471v963h256v-947q0 -282 279 -282q283 0 283 278v951h256v-963q0 -238 -141.5 -370t-397.5 -132q-253 0 -394 132t-141 370zM551 1556l174 267h266l-235 -267h-205z" />
    <glyph glyph-name="Ucircumflex" unicode="&#xdb;" horiz-adv-x="1359" 
d="M143 471v963h256v-947q0 -282 279 -282q283 0 283 278v951h256v-963q0 -238 -141.5 -370t-397.5 -132q-253 0 -394 132t-141 370zM401 1620l142 178h274l139 -178l-133 -104l-143 182l-145 -182z" />
    <glyph glyph-name="Udieresis" unicode="&#xdc;" horiz-adv-x="1359" 
d="M143 471v963h256v-947q0 -282 279 -282q283 0 283 278v951h256v-963q0 -238 -141.5 -370t-397.5 -132q-253 0 -394 132t-141 370zM356 1536v238h242v-238h-242zM762 1536v238h242v-238h-242z" />
    <glyph glyph-name="Yacute" unicode="&#xdd;" horiz-adv-x="1202" 
d="M-14 1434h278l334 -617h4l334 617h278l-485 -846v-588h-256v588zM473 1556l174 267h266l-235 -267h-205z" />
    <glyph glyph-name="Thorn" unicode="&#xde;" 
d="M154 0v1434h256v-252h319q228 0 360 -123t132 -338t-131 -337t-363 -122h-317v-262h-256zM410 500h313q115 0 178.5 58.5t63.5 164.5q0 223 -242 223h-313v-446z" />
    <glyph glyph-name="germandbls" unicode="&#xdf;" horiz-adv-x="1148" 
d="M113 0v1008q0 212 127 333q126 123 338 123q191 0 314.5 -106.5t123.5 -272.5q0 -91 -46 -166t-126 -118v-4q109 -38 171 -133.5t62 -223.5q0 -210 -131 -325t-371 -115h-86v221h66q276 0 276 232q0 100 -61 156.5t-170 56.5h-111v204h72q103 0 160 49.5t57 137.5
q0 84 -56 135t-147 51q-106 0 -161.5 -61t-55.5 -176v-1006h-245z" />
    <glyph glyph-name="agrave" unicode="&#xe0;" horiz-adv-x="1060" 
d="M72 762q28 164 151 256q125 98 309 98q197 0 311.5 -105t114.5 -288v-723h-223v94h-4q-41 -60 -118 -92.5t-177 -32.5q-162 0 -259 87t-97 233q0 137 89 217t298 129q139 36 189.5 66.5t50.5 80.5q0 57 -46.5 90t-128.5 33q-92 0 -152 -50.5t-77 -141.5zM217 1505h266
l174 -266h-204zM317 305q0 -123 160 -123q106 0 173 51.5t67 133.5v186h-4q-17 -30 -60.5 -52.5t-128.5 -47.5q-112 -29 -159.5 -63t-47.5 -85z" />
    <glyph glyph-name="aacute" unicode="&#xe1;" horiz-adv-x="1060" 
d="M72 762q28 164 151 256q125 98 309 98q197 0 311.5 -105t114.5 -288v-723h-223v94h-4q-41 -60 -118 -92.5t-177 -32.5q-162 0 -259 87t-97 233q0 137 89 217t298 129q139 36 189.5 66.5t50.5 80.5q0 57 -46.5 90t-128.5 33q-92 0 -152 -50.5t-77 -141.5zM317 305
q0 -123 160 -123q106 0 173 51.5t67 133.5v186h-4q-17 -30 -60.5 -52.5t-128.5 -47.5q-112 -29 -159.5 -63t-47.5 -85zM403 1239l175 266h266l-236 -266h-205z" />
    <glyph glyph-name="acircumflex" unicode="&#xe2;" horiz-adv-x="1060" 
d="M72 762q28 164 151 256q125 98 309 98q197 0 311.5 -105t114.5 -288v-723h-223v94h-4q-41 -60 -118 -92.5t-177 -32.5q-162 0 -259 87t-97 233q0 137 89 217t298 129q139 36 189.5 66.5t50.5 80.5q0 57 -46.5 90t-128.5 33q-92 0 -152 -50.5t-77 -141.5zM254 1303
l141 178h275l139 -178l-133 -105l-144 182l-145 -182zM317 305q0 -123 160 -123q106 0 173 51.5t67 133.5v186h-4q-17 -30 -60.5 -52.5t-128.5 -47.5q-112 -29 -159.5 -63t-47.5 -85z" />
    <glyph glyph-name="atilde" unicode="&#xe3;" horiz-adv-x="1060" 
d="M72 762q28 164 151 256q125 98 309 98q197 0 311.5 -105t114.5 -288v-723h-223v94h-4q-41 -60 -118 -92.5t-177 -32.5q-162 0 -259 87t-97 233q0 137 89 217t298 129q139 36 189.5 66.5t50.5 80.5q0 57 -46.5 90t-128.5 33q-92 0 -152 -50.5t-77 -141.5zM207 1239
q4 104 56.5 163.5t137.5 59.5q67 0 156 -47q1 0 20 -9t42 -16.5t38 -7.5q57 0 72 70h127q-4 -105 -55.5 -164t-136.5 -59q-72 0 -158 47q-1 0 -20 9t-42 16.5t-38 7.5q-57 0 -72 -70h-127zM317 305q0 -123 160 -123q106 0 173 51.5t67 133.5v186h-4q-17 -30 -60.5 -52.5
t-128.5 -47.5q-112 -29 -159.5 -63t-47.5 -85z" />
    <glyph glyph-name="adieresis" unicode="&#xe4;" horiz-adv-x="1060" 
d="M72 762q28 164 151 256q125 98 309 98q197 0 311.5 -105t114.5 -288v-723h-223v94h-4q-41 -60 -118 -92.5t-177 -32.5q-162 0 -259 87t-97 233q0 137 89 217t298 129q139 36 189.5 66.5t50.5 80.5q0 57 -46.5 90t-128.5 33q-92 0 -152 -50.5t-77 -141.5zM209 1219v237
h242v-237h-242zM317 305q0 -123 160 -123q106 0 173 51.5t67 133.5v186h-4q-17 -30 -60.5 -52.5t-128.5 -47.5q-112 -29 -159.5 -63t-47.5 -85zM614 1219v237h242v-237h-242z" />
    <glyph glyph-name="aring" unicode="&#xe5;" horiz-adv-x="1060" 
d="M72 762q28 164 151 256q125 98 309 98q197 0 311.5 -105t114.5 -288v-723h-223v94h-4q-41 -60 -118 -92.5t-177 -32.5q-162 0 -259 87t-97 233q0 137 89 217t298 129q139 36 189.5 66.5t50.5 80.5q0 57 -46.5 90t-128.5 33q-92 0 -152 -50.5t-77 -141.5zM272 1391
q0 103 72.5 169t185.5 66t187 -66.5t74 -168.5q0 -100 -74.5 -167t-186.5 -67t-185 67t-73 167zM317 305q0 -123 160 -123q106 0 173 51.5t67 133.5v186h-4q-17 -30 -60.5 -52.5t-128.5 -47.5q-112 -29 -159.5 -63t-47.5 -85zM408 1391q0 -54 33.5 -88.5t88.5 -34.5t90 34.5
t35 88.5t-35 89.5t-90 35.5t-88.5 -34.5t-33.5 -90.5z" />
    <glyph glyph-name="ae" unicode="&#xe6;" horiz-adv-x="1777" 
d="M72 764q27 162 153 256q128 96 305 96q241 0 342 -149q125 149 345 149q216 0 352.5 -156t136.5 -405v-84h-748q4 -135 75 -213t188 -78q90 0 154 41t130 141l170 -141q-153 -252 -454 -252q-241 0 -377 181q-126 -181 -400 -181q-162 0 -262 86t-100 228q0 117 57 186
q53 64 127 97.5t213 70.5q130 33 182 63t52 84q0 60 -48 94.5t-133 34.5q-93 0 -155.5 -51t-81.5 -147zM313 303q0 -127 166 -127q108 0 176 53.5t68 135.5v192h-4q-18 -33 -62 -54.5t-129 -43.5q-116 -34 -165.5 -66t-49.5 -90zM961 651h505q-6 118 -73 187t-176 69
q-105 0 -177.5 -72t-78.5 -184z" />
    <glyph glyph-name="ccedilla" unicode="&#xe7;" horiz-adv-x="1134" 
d="M72 543q0 255 144.5 414t373.5 159q192 0 322 -107t161 -290l-235 -45q-19 104 -83.5 160.5t-164.5 56.5q-125 0 -199 -94.5t-74 -253.5t74 -253.5t199 -94.5q102 0 165.5 56t82.5 161l235 -45q-31 -183 -161 -290.5t-322 -107.5q-229 0 -373.5 159.5t-144.5 414.5z
M395 -426l86 115q70 -58 131 -58q41 0 67 22.5t26 57.5q0 32 -25 52t-66 20q-61 0 -104 -49l-104 47l139 254l108 -47l-59 -99q28 7 53 7q88 0 146.5 -54.5t58.5 -138.5q0 -96 -64 -153.5t-170 -57.5q-125 0 -223 82z" />
    <glyph glyph-name="egrave" unicode="&#xe8;" horiz-adv-x="1150" 
d="M72 543q0 253 142 413t364 160q225 0 363 -155.5t138 -405.5v-84h-760q6 -131 77 -210t186 -79q90 0 156 42t128 136l181 -131q-148 -260 -465 -260q-226 0 -368 159t-142 415zM262 1505h266l174 -266h-204zM322 651h514q-6 117 -74 184.5t-182 67.5q-106 0 -179 -71.5
t-79 -180.5z" />
    <glyph glyph-name="eacute" unicode="&#xe9;" horiz-adv-x="1150" 
d="M72 543q0 253 142 413t364 160q225 0 363 -155.5t138 -405.5v-84h-760q6 -131 77 -210t186 -79q90 0 156 42t128 136l181 -131q-148 -260 -465 -260q-226 0 -368 159t-142 415zM322 651h514q-6 117 -74 184.5t-182 67.5q-106 0 -179 -71.5t-79 -180.5zM449 1239l174 266
h266l-236 -266h-204z" />
    <glyph glyph-name="ecircumflex" unicode="&#xea;" horiz-adv-x="1150" 
d="M72 543q0 253 142 413t364 160q225 0 363 -155.5t138 -405.5v-84h-760q6 -131 77 -210t186 -79q90 0 156 42t128 136l181 -131q-148 -260 -465 -260q-226 0 -368 159t-142 415zM299 1303l141 178h275l139 -178l-133 -105l-143 182l-146 -182zM322 651h514
q-6 117 -74 184.5t-182 67.5q-106 0 -179 -71.5t-79 -180.5z" />
    <glyph glyph-name="edieresis" unicode="&#xeb;" horiz-adv-x="1150" 
d="M72 543q0 253 142 413t364 160q225 0 363 -155.5t138 -405.5v-84h-760q6 -131 77 -210t186 -79q90 0 156 42t128 136l181 -131q-148 -260 -465 -260q-226 0 -368 159t-142 415zM254 1219v237h242v-237h-242zM322 651h514q-6 117 -74 184.5t-182 67.5q-106 0 -179 -71.5
t-79 -180.5zM659 1219v237h242v-237h-242z" />
    <glyph glyph-name="igrave" unicode="&#xec;" horiz-adv-x="471" 
d="M-80 1475h266l174 -267h-204zM113 0v1085h245v-1085h-245z" />
    <glyph glyph-name="iacute" unicode="&#xed;" horiz-adv-x="471" 
d="M106 1208l175 267h266l-236 -267h-205zM113 0v1085h245v-1085h-245z" />
    <glyph glyph-name="icircumflex" unicode="&#xee;" horiz-adv-x="471" 
d="M-43 1272l141 178h275l139 -178l-133 -105l-143 183l-146 -183zM113 0v1085h245v-1085h-245z" />
    <glyph glyph-name="idieresis" unicode="&#xef;" horiz-adv-x="464" 
d="M-76 1188v237h244v-237h-244zM113 0v1085h245v-1085h-245zM297 1188v237h242v-237h-242z" />
    <glyph glyph-name="eth" unicode="&#xf0;" horiz-adv-x="1198" 
d="M72 543q0 249 141 411t358 162q157 0 252 -80h4q-59 143 -145 256l-283 -84l-32 109l239 72q-59 73 -184 194v4h244q89 -99 125 -145l282 84l33 -105l-246 -73q129 -191 197.5 -392.5t68.5 -394.5q0 -269 -143.5 -430.5t-382.5 -161.5q-235 0 -381.5 159t-146.5 415z
M317 543q0 -161 75.5 -254.5t205.5 -93.5q133 0 208 93t75 255t-75 255t-208 93q-130 0 -205.5 -93.5t-75.5 -254.5z" />
    <glyph glyph-name="ntilde" unicode="&#xf1;" horiz-adv-x="1159" 
d="M113 0v1085h235v-96h4q47 57 129 92t170 35q184 0 295 -114.5t111 -305.5v-696h-246v657q0 109 -58.5 169.5t-164.5 60.5q-105 0 -167.5 -62.5t-62.5 -167.5v-657h-245zM299 1239q4 104 57 163.5t138 59.5q66 0 155 -47q1 0 20.5 -9t42 -16.5t38.5 -7.5q56 0 71 70h127
q-4 -105 -55.5 -164t-136.5 -59q-72 0 -158 47q-1 0 -20 9t-42 16.5t-38 7.5q-57 0 -72 -70h-127z" />
    <glyph glyph-name="ograve" unicode="&#xf2;" horiz-adv-x="1198" 
d="M72 543q0 256 146 414.5t380 158.5q235 0 381.5 -158.5t146.5 -414.5t-146.5 -415t-381.5 -159q-234 0 -380 159t-146 415zM283 1505h266l174 -266h-205zM317 543q0 -164 75 -256t206 -92q133 0 208 93t75 255t-75 255t-208 93q-131 0 -206 -92t-75 -256z" />
    <glyph glyph-name="oacute" unicode="&#xf3;" horiz-adv-x="1198" 
d="M72 543q0 256 146 414.5t380 158.5q235 0 381.5 -158.5t146.5 -414.5t-146.5 -415t-381.5 -159q-234 0 -380 159t-146 415zM317 543q0 -164 75 -256t206 -92q133 0 208 93t75 255t-75 255t-208 93q-131 0 -206 -92t-75 -256zM469 1239l174 266h266l-235 -266h-205z" />
    <glyph glyph-name="ocircumflex" unicode="&#xf4;" horiz-adv-x="1198" 
d="M72 543q0 256 146 414.5t380 158.5q235 0 381.5 -158.5t146.5 -414.5t-146.5 -415t-381.5 -159q-234 0 -380 159t-146 415zM317 543q0 -164 75 -256t206 -92q133 0 208 93t75 255t-75 255t-208 93q-131 0 -206 -92t-75 -256zM319 1303l142 178h274l139 -178l-133 -105
l-143 182l-145 -182z" />
    <glyph glyph-name="otilde" unicode="&#xf5;" horiz-adv-x="1198" 
d="M72 543q0 256 146 414.5t380 158.5q235 0 381.5 -158.5t146.5 -414.5t-146.5 -415t-381.5 -159q-234 0 -380 159t-146 415zM272 1239q4 104 57 163.5t138 59.5q67 0 156 -47q1 0 20 -9t42 -16.5t38 -7.5q57 0 72 70h127q-4 -105 -56 -164t-137 -59q-72 0 -158 47
q-1 0 -20 9t-42 16.5t-38 7.5q-57 0 -72 -70h-127zM317 543q0 -164 75 -256t206 -92q133 0 208 93t75 255t-75 255t-208 93q-131 0 -206 -92t-75 -256z" />
    <glyph glyph-name="odieresis" unicode="&#xf6;" horiz-adv-x="1198" 
d="M72 543q0 256 146 414.5t380 158.5q235 0 381.5 -158.5t146.5 -414.5t-146.5 -415t-381.5 -159q-234 0 -380 159t-146 415zM274 1219v237h242v-237h-242zM317 543q0 -164 75 -256t206 -92q133 0 208 93t75 255t-75 255t-208 93q-131 0 -206 -92t-75 -256zM680 1219v237
h242v-237h-242z" />
    <glyph glyph-name="divide" unicode="&#xf7;" horiz-adv-x="1132" 
d="M109 647v201h913v-201h-913zM385 305q0 75 52.5 128.5t127.5 53.5t127.5 -52.5t52.5 -129.5q0 -75 -52.5 -126.5t-127.5 -51.5t-127.5 51.5t-52.5 126.5zM385 1180q0 75 52.5 127.5t127.5 52.5q78 0 129 -51t51 -129q0 -75 -52.5 -128t-127.5 -53t-127.5 53t-52.5 128z
" />
    <glyph glyph-name="oslash" unicode="&#xf8;" horiz-adv-x="1198" 
d="M72 543q0 256 146.5 414.5t381.5 158.5q170 0 301 -90l76 96l94 -75l-80 -101q135 -153 135 -403q0 -256 -146 -415t-380 -159q-176 0 -301 88l-66 -82l-94 74l70 88q-137 152 -137 406zM309 543q0 -126 47 -215l408 522q-67 49 -164 49q-135 0 -213 -95t-78 -261z
M436 236q68 -50 164 -50q135 0 211 95.5t76 261.5q0 131 -45 211z" />
    <glyph glyph-name="ugrave" unicode="&#xf9;" horiz-adv-x="1134" 
d="M92 375v710h246v-659q0 -231 217 -231q100 0 160.5 63.5t60.5 167.5v659h246v-1085h-238v96h-4q-47 -60 -127 -93.5t-172 -33.5q-184 0 -286.5 107t-102.5 299zM242 1475h266l174 -267h-205z" />
    <glyph glyph-name="uacute" unicode="&#xfa;" horiz-adv-x="1134" 
d="M92 375v710h246v-659q0 -231 217 -231q100 0 160.5 63.5t60.5 167.5v659h246v-1085h-238v96h-4q-47 -60 -127 -93.5t-172 -33.5q-184 0 -286.5 107t-102.5 299zM428 1208l174 267h266l-235 -267h-205z" />
    <glyph glyph-name="ucircumflex" unicode="&#xfb;" horiz-adv-x="1134" 
d="M92 375v710h246v-659q0 -231 217 -231q100 0 160.5 63.5t60.5 167.5v659h246v-1085h-238v96h-4q-47 -60 -127 -93.5t-172 -33.5q-184 0 -286.5 107t-102.5 299zM279 1272l141 178h274l140 -178l-134 -105l-143 183l-145 -183z" />
    <glyph glyph-name="udieresis" unicode="&#xfc;" horiz-adv-x="1134" 
d="M92 375v710h246v-659q0 -231 217 -231q100 0 160.5 63.5t60.5 167.5v659h246v-1085h-238v96h-4q-47 -60 -127 -93.5t-172 -33.5q-184 0 -286.5 107t-102.5 299zM233 1188v237h242v-237h-242zM639 1188v237h242v-237h-242z" />
    <glyph glyph-name="yacute" unicode="&#xfd;" horiz-adv-x="1097" 
d="M6 1085h256l285 -731h4l287 731h254l-633 -1546h-252l217 529zM420 1208l174 267h266l-235 -267h-205z" />
    <glyph glyph-name="thorn" unicode="&#xfe;" horiz-adv-x="1212" 
d="M113 -461v1956h245v-494q55 55 131.5 85t163.5 30q212 0 350 -162t138 -411q0 -164 -62.5 -295t-173.5 -205t-250 -74q-90 0 -167.5 31.5t-125.5 85.5h-4v-547h-245zM358 457q0 -112 74 -189q73 -73 182 -73q130 0 205.5 93.5t75.5 254.5t-74 254.5t-203 93.5
q-112 0 -186 -74.5t-74 -185.5v-174z" />
    <glyph glyph-name="ydieresis" unicode="&#xff;" horiz-adv-x="1097" 
d="M6 1085h256l285 -731h4l287 731h254l-633 -1546h-252l217 529zM225 1188v237h242v-237h-242zM631 1188v237h241v-237h-241z" />
    <glyph glyph-name="OE" unicode="&#x152;" horiz-adv-x="1921" 
d="M72 717q0 336 168 541.5t440 205.5q181 0 309 -84h4v54h834v-232h-582v-356h527v-225h-527v-390h584v-231h-836v55h-4q-127 -86 -309 -86q-272 0 -440 206t-168 542zM324 717q0 -241 98 -378.5t270 -137.5q198 0 301 157v713q-101 162 -301 162q-170 0 -269 -138.5
t-99 -377.5z" />
    <glyph glyph-name="oe" unicode="&#x153;" horiz-adv-x="1957" 
d="M72 543q0 254 147.5 413.5t382.5 159.5q256 0 399 -188q63 91 161.5 139.5t219.5 48.5q224 0 364 -156t140 -405v-84h-762q5 -130 76 -208.5t186 -78.5q93 0 158.5 41t126.5 137l182 -133q-155 -260 -464 -260q-249 0 -390 189q-141 -189 -397 -189q-235 0 -382.5 160
t-147.5 414zM319 543q0 -164 76 -257t207 -93t206 93t75 257t-75 257t-206 93t-207 -93t-76 -257zM1126 651h516q-6 116 -74.5 184t-183.5 68q-104 0 -178 -73t-80 -179z" />
    <glyph glyph-name="Ydieresis" unicode="&#x178;" horiz-adv-x="1202" 
d="M-14 1434h278l334 -617h4l334 617h278l-485 -846v-588h-256v588zM279 1536v238h241v-238h-241zM684 1536v238h242v-238h-242z" />
    <glyph glyph-name="circumflex" unicode="&#x2c6;" horiz-adv-x="774" 
d="M109 1272l141 178h274l140 -178l-134 -105l-143 183l-145 -183z" />
    <glyph glyph-name="tilde" unicode="&#x2dc;" horiz-adv-x="868" 
d="M109 1208q4 104 56.5 164t137.5 60q65 0 156 -48q1 0 20 -8.5t41.5 -16t38.5 -7.5q57 0 72 69h127q-4 -105 -56 -164t-137 -59q-71 0 -157 47q-1 0 -20.5 9t-42 16.5t-38.5 7.5q-56 0 -71 -70h-127z" />
    <glyph glyph-name="uni2000" unicode="&#x2000;" horiz-adv-x="926" 
 />
    <glyph glyph-name="uni2001" unicode="&#x2001;" horiz-adv-x="1853" 
 />
    <glyph glyph-name="uni2002" unicode="&#x2002;" horiz-adv-x="926" 
 />
    <glyph glyph-name="uni2003" unicode="&#x2003;" horiz-adv-x="1853" 
 />
    <glyph glyph-name="uni2004" unicode="&#x2004;" horiz-adv-x="617" 
 />
    <glyph glyph-name="uni2005" unicode="&#x2005;" horiz-adv-x="463" 
 />
    <glyph glyph-name="uni2006" unicode="&#x2006;" horiz-adv-x="308" 
 />
    <glyph glyph-name="uni2007" unicode="&#x2007;" horiz-adv-x="308" 
 />
    <glyph glyph-name="uni2008" unicode="&#x2008;" horiz-adv-x="231" 
 />
    <glyph glyph-name="uni2009" unicode="&#x2009;" horiz-adv-x="370" 
 />
    <glyph glyph-name="uni200A" unicode="&#x200a;" horiz-adv-x="102" 
 />
    <glyph glyph-name="uni2010" unicode="&#x2010;" horiz-adv-x="733" 
d="M88 489v228h555v-228h-555z" />
    <glyph glyph-name="uni2011" unicode="&#x2011;" horiz-adv-x="733" 
d="M88 489v228h555v-228h-555z" />
    <glyph glyph-name="figuredash" unicode="&#x2012;" horiz-adv-x="733" 
d="M88 489v228h555v-228h-555z" />
    <glyph glyph-name="endash" unicode="&#x2013;" horiz-adv-x="1140" 
d="M88 487v230h963v-230h-963z" />
    <glyph glyph-name="emdash" unicode="&#x2014;" horiz-adv-x="1728" 
d="M88 487v230h1550v-230h-1550z" />
    <glyph glyph-name="quoteleft" unicode="&#x2018;" horiz-adv-x="565" 
d="M129 883v245q0 136 75 214.5t220 91.5v-131q-57 -13 -81 -46.5t-24 -95.5h117v-278h-307z" />
    <glyph glyph-name="quoteright" unicode="&#x2019;" horiz-adv-x="565" 
d="M129 1155v279h307v-246q0 -136 -74.5 -214t-220.5 -91v131q57 13 81 46t24 95h-117z" />
    <glyph glyph-name="quotesinglbase" unicode="&#x201a;" horiz-adv-x="647" 
d="M170 0v279h307v-246q0 -136 -74.5 -214t-220.5 -91v131q57 13 81 46t24 95h-117z" />
    <glyph glyph-name="quotedblleft" unicode="&#x201c;" horiz-adv-x="1058" 
d="M170 883v245q0 136 75 214.5t220 91.5v-131q-57 -13 -81 -46.5t-24 -95.5h117v-278h-307zM582 883v245q0 136 75 214.5t220 91.5v-131q-57 -13 -81 -46.5t-24 -95.5h117v-278h-307z" />
    <glyph glyph-name="quotedblright" unicode="&#x201d;" horiz-adv-x="1058" 
d="M170 1155v279h307v-246q0 -136 -74.5 -214t-220.5 -91v131q57 13 81 46t24 95h-117zM582 1155v279h307v-246q0 -136 -74.5 -214t-220.5 -91v131q56 13 80 46t24 95h-116z" />
    <glyph glyph-name="quotedblbase" unicode="&#x201e;" horiz-adv-x="1058" 
d="M170 0v279h307v-246q0 -136 -74.5 -214t-220.5 -91v131q57 13 81 46t24 95h-117zM582 0v279h307v-246q0 -136 -74.5 -214t-220.5 -91v131q56 13 80 46t24 95h-116z" />
    <glyph glyph-name="bullet" unicode="&#x2022;" horiz-adv-x="804" 
d="M170 764q0 103 64.5 169t168.5 66q102 0 167 -66t65 -169q0 -104 -64.5 -170t-167.5 -66q-104 0 -168.5 66.5t-64.5 169.5z" />
    <glyph glyph-name="ellipsis" unicode="&#x2026;" horiz-adv-x="1673" 
d="M170 0v289h297v-289h-297zM688 0v289h297v-289h-297zM1204 0v289h297v-289h-297z" />
    <glyph glyph-name="uni202F" unicode="&#x202f;" horiz-adv-x="370" 
 />
    <glyph glyph-name="guilsinglleft" unicode="&#x2039;" horiz-adv-x="686" 
d="M129 567l229 391h220l-234 -391l234 -391h-220z" />
    <glyph glyph-name="guilsinglright" unicode="&#x203a;" horiz-adv-x="686" 
d="M109 176l233 391l-233 391h219l229 -391l-229 -391h-219z" />
    <glyph glyph-name="uni205F" unicode="&#x205f;" horiz-adv-x="463" 
 />
    <glyph glyph-name="Euro" unicode="&#x20ac;" horiz-adv-x="1611" 
d="M51 463v194h195q-2 14 -2 60q0 41 2 53h-195v195h223q60 234 231.5 366.5t416.5 132.5q246 0 415 -140.5t197 -367.5l-244 -38q-31 153 -125 234t-243 81q-139 0 -238.5 -69.5t-146.5 -198.5h473v-195h-512q-2 -10 -2 -53q0 -48 2 -60h383v-194h-344q47 -127 146 -194.5
t239 -67.5q158 0 251.5 88t116.5 256l250 -41q-25 -244 -193.5 -389.5t-424.5 -145.5q-244 0 -415 131t-233 363h-223z" />
    <glyph glyph-name="trademark" unicode="&#x2122;" horiz-adv-x="1658" 
d="M72 1272v162h581v-162h-202v-533h-177v533h-202zM743 739v695h211l201 -473h2l203 473h209v-695h-168v424h-2l-187 -424h-112l-187 424h-2v-424h-168z" />
    <glyph glyph-name="uni25FC" unicode="&#x25fc;" horiz-adv-x="1085" 
d="M0 0v1085h1085v-1085h-1085z" />
    </font>
</defs>
</svg>
