<svg width="40" height="40" viewBox="0 0 40 40" fill="none" xmlns="http://www.w3.org/2000/svg">
<path d="M39.5569 17.7865C38.497 13.0295 35.6481 8.97022 31.5352 6.35636C28.9954 4.74242 26.1049 3.7851 23.1283 3.56099C23.1024 3.26917 23.0415 2.97679 22.9399 2.69004C22.4865 1.41023 21.366 0.527278 20.0157 0.385847L16.7088 0.0392424C14.8896 -0.151427 13.1048 0.480997 11.8114 1.7742L1.76841 11.8172C0.475201 13.1104 -0.157223 14.8954 0.0333542 16.7145L0.379959 20.0214C0.521482 21.3717 1.40444 22.4922 2.68416 22.9456C2.97127 23.0473 3.26392 23.1101 3.55612 23.1359C3.99445 28.8636 7.09191 34.0579 11.9619 37.1528C14.9893 39.0768 18.3723 39.9946 21.7187 39.9944C27.7574 39.9939 33.6742 37.0039 37.1467 31.5412C39.7607 27.4281 40.6166 22.5432 39.5569 17.7865ZM7.91306 20.5266L11.9921 16.4476C12.1136 16.5113 12.2449 16.5438 12.3754 16.5438C12.6488 16.5438 12.9167 16.4089 13.0756 16.1623C13.0747 16.1623 13.0747 16.1623 13.0747 16.1623C13.242 15.9016 13.2453 15.5834 13.1121 15.3275L15.7392 12.7005C15.8868 12.8174 16.0697 12.881 16.2571 12.881C16.3947 12.881 16.5352 12.8468 16.6644 12.7738C17.0644 12.5475 17.2058 12.0403 16.9795 11.6403C16.9578 11.6019 16.9329 11.5667 16.9064 11.5333L20.5206 7.91904C23.5878 7.64227 26.5828 8.3704 29.1985 10.0326C35.6611 14.1406 37.5774 22.7411 33.4703 29.2044C31.4802 32.3353 28.39 34.5038 24.7688 35.3105C21.1478 36.1171 17.4293 35.4654 14.2984 33.4753C12.0678 32.0576 10.2979 30.0498 9.18049 27.6692C8.13292 25.4377 7.698 22.9743 7.91306 20.5266ZM2.03372 19.848L1.68711 16.5411C1.54901 15.2231 2.00721 13.9299 2.9442 12.9929L12.9872 2.94991C13.9242 2.01291 15.2171 1.5548 16.5353 1.69282L19.8422 2.03942C20.5596 2.11462 21.1316 2.56533 21.3724 3.24515C21.6132 3.92496 21.4525 4.63526 20.9426 5.14528L5.13958 20.9484C4.62956 21.4584 3.91889 21.619 3.23954 21.3782C2.55972 21.1374 2.10892 20.5653 2.03372 19.848ZM35.7433 30.6492C32.587 35.6146 27.2103 38.3322 21.7213 38.332C18.6803 38.3319 15.6047 37.4977 12.8537 35.7494C8.39001 32.9127 5.56397 28.1348 5.20369 22.876C5.56443 22.7229 5.90253 22.507 6.20304 22.2312C6.26928 24.3494 6.76692 26.4407 7.67537 28.3758C8.92719 31.0427 10.9091 33.2913 13.4065 34.8787C15.9316 36.4838 18.7972 37.3113 21.7185 37.3112C22.8529 37.3112 23.9963 37.1862 25.1306 36.9336C29.1853 36.0303 32.6455 33.6022 34.874 30.0964C39.4727 22.8591 37.3269 13.229 30.0907 8.62915C27.7288 7.12828 24.9965 6.29715 22.2219 6.2105C22.499 5.90916 22.7158 5.57022 22.8693 5.2081C25.621 5.39249 28.2965 6.26824 30.6434 7.75969C34.3815 10.1354 36.9707 13.8247 37.934 18.148C38.8971 22.4713 38.1191 26.9111 35.7433 30.6492Z" fill="white"/>
<path d="M17.27 28.7994C18.6253 29.6608 20.1634 30.1049 21.7312 30.1049C22.3404 30.1049 22.954 30.0379 23.563 29.9022C25.7393 29.4173 27.5965 28.1139 28.7924 26.2321C29.9885 24.3503 30.3801 22.1154 29.8953 19.939C29.4104 17.7627 28.107 15.9055 26.2252 14.7095C22.3405 12.2405 17.1716 13.3923 14.7026 17.2769C12.2337 21.1616 13.3854 26.3305 17.27 28.7994ZM16.1059 18.1689C17.3782 16.1671 19.5455 15.0717 21.7583 15.0717C22.9842 15.0717 24.2241 15.4081 25.3332 16.113C26.8402 17.0708 27.8839 18.5581 28.2722 20.3008C28.6604 22.0435 28.3469 23.8333 27.389 25.3402C26.4313 26.8472 24.944 27.8909 23.2012 28.2792C21.4587 28.6675 19.6689 28.3539 18.1617 27.3961C15.0511 25.419 14.1288 21.2796 16.1059 18.1689Z" fill="white"/>
<path d="M32.0173 26.1702C32.1069 26.2016 32.1984 26.2163 32.2888 26.2163C32.6334 26.2163 32.9559 26.0002 33.074 25.6565C33.2246 25.2223 32.9947 24.7484 32.5604 24.5988C32.1262 24.4482 31.6532 24.6792 31.5027 25.1133C31.3531 25.5466 31.5831 26.0205 32.0173 26.1702Z" fill="white"/>
<path d="M30.7263 15.9708C30.8981 15.9708 31.07 15.9181 31.2187 15.8091C31.5882 15.5366 31.6676 15.0165 31.3961 14.6461C31.1236 14.2766 30.6035 14.1971 30.233 14.4697C29.8635 14.7412 29.7841 15.2613 30.0566 15.6318C30.2192 15.8535 30.4714 15.9708 30.7263 15.9708Z" fill="white"/>
<path d="M32.7685 20.8998C32.81 20.8998 32.8526 20.8971 32.8951 20.8906C33.3496 20.8204 33.6609 20.3964 33.5906 19.9428C33.5213 19.4883 33.0963 19.177 32.6428 19.2472C32.1892 19.3165 31.8779 19.7414 31.9471 20.195C32.011 20.6061 32.3648 20.8998 32.7685 20.8998Z" fill="white"/>
<path d="M19.592 31.848C19.143 31.751 18.7005 32.0374 18.6045 32.4863C18.5085 32.9353 18.7939 33.3769 19.2428 33.4739C19.302 33.4859 19.3602 33.4924 19.4183 33.4924C19.8017 33.4924 20.1472 33.2254 20.2303 32.8346C20.3264 32.3856 20.0409 31.9441 19.592 31.848Z" fill="white"/>
<path d="M24.5254 31.6911C24.0829 31.8149 23.8252 32.274 23.949 32.7165C24.0525 33.0833 24.3859 33.3234 24.749 33.3234C24.8239 33.3234 24.8986 33.3133 24.9744 33.293C25.4159 33.1692 25.6746 32.71 25.5498 32.2676C25.4261 31.826 24.9679 31.5673 24.5254 31.6911Z" fill="white"/>
<path d="M28.8309 29.2635C28.4975 29.5785 28.4818 30.1051 28.7968 30.4395C28.9603 30.6122 29.1811 30.7 29.4018 30.7C29.606 30.7 29.8111 30.6252 29.9718 30.4737C30.3062 30.1586 30.3219 29.633 30.0069 29.2986C29.6918 28.9642 29.1653 28.9484 28.8309 29.2635Z" fill="white"/>
<path d="M15.1517 29.6886C14.798 29.3958 14.2741 29.4438 13.9803 29.7976C13.6875 30.1505 13.7364 30.6752 14.0893 30.9681C14.2446 31.0974 14.4331 31.1602 14.6196 31.1602C14.8589 31.1602 15.0953 31.0577 15.2599 30.86C15.5535 30.5062 15.5046 29.9824 15.1517 29.6886Z" fill="white"/>
<path d="M26.247 12.4688C26.2516 12.4707 26.2562 12.4735 26.2599 12.4753C26.261 12.4753 26.261 12.4753 26.261 12.4753C26.3774 12.5326 26.5011 12.5594 26.6231 12.5594C26.9316 12.5594 27.2281 12.3876 27.3722 12.091C27.5726 11.6781 27.4009 11.1811 26.988 10.9797C26.9852 10.9788 26.9823 10.9769 26.9796 10.976C26.9777 10.9751 26.9769 10.9751 26.9759 10.9742C26.5621 10.7737 26.0651 10.9464 25.8647 11.3594C25.665 11.7714 25.8359 12.2675 26.247 12.4688Z" fill="white"/>
<path d="M11.1336 25.2662C10.7095 25.4417 10.5091 25.9285 10.6847 26.3526C10.8176 26.6722 11.1271 26.8652 11.4532 26.8652C11.5594 26.8652 11.6675 26.8449 11.7719 26.8015C12.195 26.6251 12.3964 26.1392 12.2208 25.7152C12.0444 25.2902 11.5576 25.0898 11.1336 25.2662Z" fill="white"/>
<path d="M10.5659 21.5864C10.5908 21.5892 10.6157 21.5901 10.6407 21.5901C11.0665 21.5901 11.4296 21.2649 11.4684 20.8326C11.509 20.3753 11.1709 19.9716 10.7137 19.9301C10.2564 19.8894 9.85279 20.2275 9.81205 20.6848C9.77048 21.1421 10.1086 21.5458 10.5659 21.5864Z" fill="white"/>
<path d="M21.3965 11.4386C21.4057 11.4386 21.4149 11.4386 21.4242 11.4377C21.8833 11.4229 22.2436 11.0386 22.2279 10.5795C22.2131 10.1213 21.8296 9.76105 21.3706 9.77583C20.9115 9.79061 20.5512 10.1749 20.5669 10.634C20.5808 11.0839 20.9503 11.4386 21.3965 11.4386Z" fill="white"/>
<path d="M18.6835 26.5776C19.6116 27.1675 20.6648 27.4716 21.7384 27.4716C22.1555 27.4716 22.5757 27.4257 22.9927 27.3327C24.4829 27.0007 25.7546 26.1081 26.5736 24.8196C27.3926 23.5311 27.6608 22.0007 27.3288 20.5105C26.9967 19.0202 26.1043 17.7484 24.8158 16.9295C24.8157 16.9295 24.8157 16.9295 24.8157 16.9295C22.1556 15.2387 18.6161 16.0276 16.9255 18.6876C15.2349 21.3474 16.0236 24.887 18.6835 26.5776ZM18.3289 19.5794C19.1003 18.3656 20.4144 17.7014 21.7561 17.7014C22.4995 17.7014 23.2514 17.9054 23.9238 18.3327C24.8376 18.9134 25.4704 19.8152 25.7058 20.872C25.9413 21.9288 25.7511 23.0139 25.1703 23.9276C24.5896 24.8414 23.6878 25.4742 22.6311 25.7097C21.5745 25.9452 20.4892 25.755 19.5755 25.1743C17.6892 23.9754 17.1301 21.4656 18.3289 19.5794Z" fill="white"/>
<path d="M6.21605 16.944C6.79028 16.944 7.33014 16.7205 7.73614 16.3144C8.14224 15.9083 8.3657 15.3685 8.3657 14.7943C8.3657 14.22 8.14206 13.6802 7.73614 13.2742C7.33005 12.8682 6.79028 12.6445 6.21605 12.6445C5.64174 12.6445 5.10188 12.8682 4.69597 13.2742C4.28996 13.6802 4.06641 14.22 4.06641 14.7943C4.06641 15.3685 4.28996 15.9084 4.69597 16.3144C5.10197 16.7205 5.64174 16.944 6.21605 16.944ZM5.87185 14.45C5.96377 14.3581 6.08599 14.3074 6.21615 14.3074C6.34612 14.3074 6.46843 14.3581 6.56044 14.4501C6.65245 14.5421 6.70307 14.6643 6.70307 14.7944C6.70307 14.9244 6.65245 15.0466 6.56044 15.1387C6.46853 15.2306 6.34622 15.2813 6.21615 15.2813C6.08608 15.2813 5.96386 15.2307 5.87185 15.1387C5.77984 15.0466 5.72922 14.9244 5.72922 14.7944C5.72922 14.6643 5.77975 14.542 5.87185 14.45Z" fill="white"/>
<path d="M14.7864 8.37371C15.3606 8.37371 15.9005 8.15015 16.3065 7.74405C16.7126 7.33796 16.936 6.79819 16.936 6.22396C16.936 5.64974 16.7124 5.10988 16.3065 4.70387C15.9004 4.29787 15.3606 4.07422 14.7864 4.07422C14.2121 4.07422 13.6722 4.29787 13.2663 4.70387C12.8603 5.10988 12.6367 5.64974 12.6367 6.22396C12.6367 6.79819 12.8603 7.33805 13.2663 7.74405C13.6723 8.15006 14.2121 8.37371 14.7864 8.37371ZM14.4422 5.87967C14.5341 5.78775 14.6563 5.73713 14.7865 5.73713C14.9164 5.73713 15.0387 5.78775 15.1308 5.87976C15.2228 5.97177 15.2734 6.09399 15.2734 6.22406C15.2734 6.35412 15.2228 6.47634 15.1308 6.56835C15.0388 6.66027 14.9165 6.71098 14.7865 6.71098C14.6564 6.71098 14.5342 6.66036 14.4422 6.56835C14.3502 6.47634 14.2995 6.35412 14.2995 6.22406C14.2995 6.09399 14.3502 5.97168 14.4422 5.87967Z" fill="white"/>
</svg>
