<svg width="40" height="30" viewBox="0 0 40 30" fill="none" xmlns="http://www.w3.org/2000/svg">
<path d="M35.8216 9.28691C35.382 9.28691 35.0256 9.64325 35.0256 10.0829V14.8064H33.4073V10.8164C33.4073 10.3767 33.0509 10.0204 32.6113 10.0204H28.9182L28.2303 7.72702C28.1293 7.39032 27.8194 7.15974 27.4678 7.15974H21.845V5.14587H25.3856C25.8252 5.14587 26.1816 4.78953 26.1816 4.34987V1.69248C26.1816 1.25283 25.8252 0.896484 25.3856 0.896484H13.9798C13.5402 0.896484 13.1838 1.25283 13.1838 1.69248V4.34996C13.1838 4.78962 13.5402 5.14596 13.9798 5.14596H17.5203V7.15983H9.32033C9.02873 7.15983 8.76048 7.31921 8.62118 7.57534L7.29063 10.0205H4.17695C3.73729 10.0205 3.38095 10.3768 3.38095 10.8165V14.8065H1.59199V9.11586C1.59199 8.67621 1.23565 8.31986 0.795997 8.31986C0.356341 8.31986 0 8.67621 0 9.11586V25.5672C0 26.0068 0.356341 26.3632 0.795997 26.3632C1.23565 26.3632 1.59199 26.0068 1.59199 25.5672V19.8765H3.38095V24.09C3.38095 24.5296 3.73729 24.886 4.17695 24.886H10.8046L13.8347 28.7958C13.9855 28.9904 14.2177 29.1042 14.4639 29.1042H32.6113C33.0509 29.1042 33.4073 28.7479 33.4073 28.3082V19.8766H35.0256V24.6001C35.0256 25.0398 35.382 25.3961 35.8216 25.3961C38.1256 25.3961 40 23.5217 40 21.2178V13.4655C40 11.1614 38.1256 9.28691 35.8216 9.28691ZM1.59199 18.2844V16.3984H3.38095V18.2844H1.59199ZM14.7758 2.48848H24.5895V3.55396H14.7758V2.48848ZM19.1124 5.14596H20.253V7.15983H19.1124V5.14596ZM4.97295 11.6124H5.53855V23.2939H4.97295V11.6124ZM11.8239 23.6023C11.6731 23.4077 11.4409 23.2939 11.1947 23.2939H7.13054V11.6124H7.76371C8.05531 11.6124 8.32356 11.453 8.46286 11.1969L9.79342 8.75174H26.8755L27.5634 11.0451C27.6644 11.3818 27.9743 11.6124 28.3259 11.6124H29.7544V27.5121H14.854L11.8239 23.6023ZM31.8153 27.5121H31.3464V11.6124H31.8153V27.5121ZM33.4073 18.2844V16.3984H35.0256V18.2844H33.4073ZM38.408 21.2176C38.408 22.3661 37.6555 23.3422 36.6176 23.6787V11.0042C37.6555 11.3407 38.408 12.3167 38.408 13.4654V21.2176Z" fill="white"/>
</svg>
