<svg width="40" height="40" viewBox="0 0 40 40" fill="none" xmlns="http://www.w3.org/2000/svg">
<g clip-path="url(#clip0)">
<path d="M34.1422 5.85789C30.3646 2.08042 25.3422 0 20 0C14.6578 0 9.63536 2.08042 5.85789 5.85789C2.08042 9.63536 0 14.6578 0 20C0 25.3422 2.08033 30.3646 5.85789 34.1422C9.63545 37.9198 14.6578 40.0001 20 40.0001C25.3422 40.0001 30.3647 37.9198 34.1422 34.1422C37.9197 30.3647 40.0001 25.3422 40.0001 20C40.0001 14.6578 37.9197 9.63536 34.1422 5.85789ZM20 38.4037C9.85219 38.4037 1.5963 30.1478 1.5963 20C1.5963 9.85228 9.85219 1.5963 20 1.5963C30.1478 1.5963 38.4037 9.85219 38.4037 20C38.4037 30.1477 30.1479 38.4037 20 38.4037Z" fill="white"/>
<path d="M19.9975 3.38184C10.8339 3.38184 3.37891 10.8368 3.37891 20.0004C3.37891 29.1639 10.8339 36.619 19.9975 36.619C29.161 36.619 36.6161 29.1639 36.6161 20.0004C36.6161 10.8368 29.161 3.38184 19.9975 3.38184ZM21.9762 31.8644H18.0173C16.5212 26.8686 12.733 22.833 7.83427 21.0317L9.20247 15.2238C12.716 14.3688 16.345 13.9343 19.9977 13.9343C23.6517 13.9343 27.2803 14.369 30.7926 15.2247L32.1606 21.0312C27.2612 22.832 23.4724 26.8679 21.9762 31.8644ZM4.97521 20.0004C4.97521 18.7295 5.13448 17.4951 5.43308 16.3156C6.10095 16.0902 6.77628 15.88 7.45364 15.686L6.30687 20.5538C5.871 20.4401 5.42811 20.3431 4.97858 20.2646C4.97707 20.1766 4.97521 20.0887 4.97521 20.0004ZM33.6881 20.5535L32.5415 15.6865C33.2195 15.8804 33.8948 16.0907 34.5621 16.3161C34.8605 17.4954 35.0198 18.7296 35.0198 20.0004C35.0198 20.0886 35.0179 20.1765 35.0164 20.2644C34.5669 20.343 34.124 20.4398 33.6881 20.5535ZM19.9975 4.97814C26.3179 4.97814 31.7387 8.90202 33.9531 14.4414C33.1906 14.2052 32.4219 13.9881 31.6547 13.7933C27.8692 12.8278 23.9472 12.3381 19.9977 12.3381C16.0498 12.3381 12.1276 12.8275 8.3403 13.7924C7.57354 13.9875 6.80492 14.2048 6.04189 14.4413C8.2564 8.90184 13.6771 4.97814 19.9975 4.97814ZM5.09608 21.9105C11.3797 23.1824 16.1877 28.3581 16.9969 34.7214C10.7573 33.4515 5.91073 28.3019 5.09608 21.9105ZM18.63 34.9598C18.5793 34.4534 18.5062 33.9533 18.4108 33.4607H21.5829C21.4875 33.9533 21.4144 34.4535 21.3637 34.9599C20.9136 35.0007 20.4582 35.0227 19.9975 35.0227C19.5365 35.0226 19.0806 35.0006 18.63 34.9598ZM22.9967 34.7216C23.806 28.3572 28.6145 23.1814 34.899 21.9103C34.0844 28.3022 29.2371 33.4521 22.9967 34.7216Z" fill="white"/>
<path d="M19.9997 15.4619C17.497 15.4619 15.4609 17.498 15.4609 20.0007C15.4609 22.5034 17.497 24.5395 19.9997 24.5395C22.5024 24.5395 24.5385 22.5034 24.5385 20.0007C24.5385 17.498 22.5024 15.4619 19.9997 15.4619ZM19.9997 22.9431C18.3772 22.9431 17.0572 21.6231 17.0572 20.0006C17.0572 18.3781 18.3772 17.0581 19.9997 17.0581C21.6221 17.0581 22.9422 18.3781 22.9422 20.0006C22.9422 21.6231 21.6222 22.9431 19.9997 22.9431Z" fill="white"/>
</g>
<defs>
<clipPath id="clip0">
<path d="M0 0H40V40H0V0Z" fill="white"/>
</clipPath>
</defs>
</svg>
