<svg width="40" height="30" viewBox="0 0 40 30" fill="none" xmlns="http://www.w3.org/2000/svg">
<path d="M36.619 29.6355C34.7547 29.6355 33.238 28.1189 33.238 26.2545V18.3809H28.9207V26.2545C28.9207 28.1188 27.404 29.6355 25.5397 29.6355C23.6754 29.6355 22.1587 28.1189 22.1587 26.2545V18.3809H17.8413V26.2545C17.8413 28.1188 16.3246 29.6355 14.4603 29.6355C12.5959 29.6355 11.0792 28.1189 11.0792 26.2545V18.3809H3.38092C1.51668 18.3808 0 16.8641 0 14.9999V3.74528C0 1.88103 1.51668 0.364258 3.38102 0.364258C5.24536 0.364258 6.76203 1.88094 6.76203 3.74528V11.6189H11.0794V3.74528C11.0794 1.88103 12.5961 0.364258 14.4605 0.364258C16.3248 0.364258 17.8415 1.88094 17.8415 3.74528V11.6189H22.1589V3.74528C22.1589 1.88103 23.6755 0.364258 25.5399 0.364258C27.4042 0.364258 28.9209 1.88094 28.9209 3.74528V11.6189H33.2382V3.74528C33.2382 1.88103 34.7549 0.364258 36.6192 0.364258C38.4836 0.364258 40.0002 1.88094 40.0002 3.74528V26.2545C40 28.1188 38.4833 29.6355 36.619 29.6355ZM28.0587 16.6569H34.1C34.5761 16.6569 34.962 17.0428 34.962 17.5189V26.2544C34.962 27.1681 35.7053 27.9115 36.619 27.9115C37.5327 27.9115 38.2761 27.1681 38.2761 26.2544V3.74528C38.2761 2.83159 37.5327 2.08819 36.619 2.08819C35.7053 2.08819 34.962 2.83159 34.962 3.74528V12.4808C34.962 12.9569 34.5761 13.3428 34.1 13.3428H28.0587C27.5827 13.3428 27.1968 12.9569 27.1968 12.4808V3.74528C27.1968 2.83159 26.4534 2.08819 25.5397 2.08819C24.626 2.08819 23.8826 2.83159 23.8826 3.74528V12.4808C23.8826 12.9569 23.4967 13.3428 23.0206 13.3428H16.9793C16.5032 13.3428 16.1173 12.9569 16.1173 12.4808V3.74528C16.1173 2.83159 15.3739 2.08819 14.4603 2.08819C13.5466 2.08819 12.8032 2.83159 12.8032 3.74528V12.4808C12.8032 12.9569 12.4173 13.3428 11.9412 13.3428H5.90007C5.42397 13.3428 5.0381 12.9569 5.0381 12.4808V3.74528C5.0381 2.83159 4.2947 2.08819 3.38102 2.08819C2.46733 2.08819 1.72393 2.8315 1.72393 3.74528V14.9999C1.72393 15.9136 2.46733 16.657 3.38102 16.657H11.9413C12.4174 16.657 12.8033 17.0429 12.8033 17.5189V26.2545C12.8033 27.1682 13.5467 27.9116 14.4604 27.9116C15.374 27.9116 16.1174 27.1682 16.1174 26.2545V17.5189C16.1174 17.0429 16.5033 16.657 16.9794 16.657H23.0207C23.4968 16.657 23.8827 17.0429 23.8827 17.5189V26.2545C23.8827 27.1682 24.6261 27.9116 25.5398 27.9116C26.4535 27.9116 27.1969 27.1682 27.1969 26.2545V17.5189C27.1968 17.0429 27.5827 16.6569 28.0587 16.6569Z" fill="white"/>
</svg>
